<svg width="16" height="16" viewBox="0 0 16 16" fill="none" xmlns="http://www.w3.org/2000/svg">
<path d="M-0.000817825 8.00001C0.00403253 12.4167 3.58327 15.996 7.99998 16.0008L8.16 16.0008C12.5568 15.9129 16.0584 12.2928 16.0001 7.89546C15.9417 3.49816 12.3453 -0.0277506 7.94771 0.000982699C3.55011 0.0297159 6.18355e-05 3.60232 -0.000817825 8.00001ZM14.4006 8.00001C14.4006 11.535 11.535 14.4006 7.99998 14.4006C4.465 14.4006 1.59934 11.535 1.59934 8.00001C1.59934 4.46503 4.465 1.59937 7.99998 1.59937C11.5333 1.60334 14.3967 4.46668 14.4006 8.00001ZM3.99958 8.00001L5.12769 9.12812L7.1999 7.06392L7.1999 12.0004L8.80006 12.0004L8.80006 7.06392L10.8723 9.12812L12.0004 8.00001L7.99998 3.99961L3.99958 8.00001Z" fill="#191A1A"/>
</svg>
