<svg width="16" height="17" viewBox="0 0 16 17" fill="none" xmlns="http://www.w3.org/2000/svg">
<path d="M8.0008 16.0016C3.58409 15.9968 0.00485038 12.4175 0 8.00081V7.8408C0.087954 3.44398 3.70804 -0.0576263 8.10535 0.000718646C12.5027 0.0590636 16.0286 3.65549 15.9998 8.05309C15.9711 12.4507 12.3985 16.0007 8.0008 16.0016ZM8.0008 1.60017C4.46582 1.60017 1.60016 4.46584 1.60016 8.00081C1.60016 11.5358 4.46582 14.4015 8.0008 14.4015C11.5358 14.4015 14.4014 11.5358 14.4014 8.00081C14.3975 4.46748 11.5341 1.60414 8.0008 1.60017ZM8.0008 12.0012L6.87269 10.8731L8.93689 8.80089H4.0004V7.20073H8.93689L6.87269 5.12853L8.0008 4.00041L12.0012 8.00081L8.0008 12.0012Z" fill="#191A1A"/>
</svg>
