<svg width="16" height="17" viewBox="0 0 16 17" fill="none" xmlns="http://www.w3.org/2000/svg">
<path d="M7.9992 16.0016C12.4159 15.9968 15.9951 12.4175 16 8.00081V7.8408C15.912 3.44398 12.292 -0.0576263 7.89465 0.000718646C3.49735 0.0590636 -0.0285593 3.65549 0.000174079 8.05309C0.0289073 12.4507 3.60151 16.0007 7.9992 16.0016ZM7.9992 1.60017C11.5342 1.60017 14.3998 4.46584 14.3998 8.00081C14.3998 11.5358 11.5342 14.4015 7.9992 14.4015C4.46423 14.4015 1.59856 11.5358 1.59856 8.00081C1.60253 4.46748 4.46587 1.60414 7.9992 1.60017ZM7.9992 12.0012L9.12731 10.8731L7.06311 8.80089H11.9996V7.20073H7.06311L9.12731 5.12853L7.9992 4.00041L3.9988 8.00081L7.9992 12.0012Z" fill="#191A1A"/>
</svg>
