<svg width="17" height="16" viewBox="0 0 17 16" fill="none" xmlns="http://www.w3.org/2000/svg">
<path d="M-2.43677e-05 8.00161C0.00482598 3.5849 3.58406 0.00565924 8.00077 0.000808811L8.16079 0.000808809C12.5576 0.0887627 16.0592 3.70885 16.0009 8.10616C15.9425 12.5035 12.3461 16.0294 7.9485 16.0006C3.5509 15.9719 0.000855293 12.3993 -2.43677e-05 8.00161ZM14.4014 8.00161C14.4014 4.46663 11.5357 1.60097 8.00077 1.60097C4.4658 1.60097 1.60014 4.46663 1.60014 8.00161C1.60014 11.5366 4.4658 14.4022 8.00077 14.4022C11.5341 14.3983 14.3974 11.5349 14.4014 8.00161ZM4.00037 8.00161L5.12849 6.8735L7.20069 8.9377L7.20069 4.00121L8.80085 4.00121L8.80085 8.9377L10.8731 6.8735L12.0012 8.00161L8.00077 12.002L4.00037 8.00161Z" fill="#191A1A"/>
</svg>
