<svg width="16" height="16" viewBox="0 0 16 16" fill="none" xmlns="http://www.w3.org/2000/svg">
<path d="M12.6628 14H4.00051C1.91782 14.0013 0.18305 12.3526 0.0134498 10.2109C-0.15615 8.06921 1.29624 6.15192 3.35151 5.80436C4.2975 4.07386 6.07286 3.00249 7.99847 3.00004C9.19897 2.99551 10.3651 3.41361 11.3041 4.18531C12.2263 4.93991 12.8819 5.98678 13.1698 7.16423C14.8935 7.43506 16.1232 9.0312 15.9902 10.8248C15.8571 12.6185 14.4063 14.0029 12.6628 14ZM7.99847 4.37506C6.55368 4.37682 5.22167 5.18087 4.51225 6.47948L4.20041 7.05629L3.56806 7.16285C2.20228 7.39894 1.23926 8.67486 1.352 10.0989C1.46475 11.523 2.6157 12.6207 4.00051 12.625H12.6628C13.7079 12.6261 14.5775 11.7963 14.6579 10.7211C14.7382 9.6459 14.0023 8.68834 12.9693 8.52409L12.0924 8.38659L11.8778 7.49835C11.4349 5.66055 9.83393 4.3716 7.99847 4.37506Z" fill="#191A1A"/>
</svg>
