<svg width="16" height="16" viewBox="0 0 16 16" fill="none" xmlns="http://www.w3.org/2000/svg">
<g clip-path="url(#clip0_3_806)">
<path d="M0 8.04786C0.0009308 12.0075 2.86262 15.3789 6.74937 15.9994V10.374H4.71984V8.04786H6.75177V6.27709C6.66093 5.43802 6.94578 4.60177 7.52905 3.99515C8.11232 3.38853 8.93357 3.07442 9.77006 3.13799C10.3705 3.14775 10.9694 3.20155 11.562 3.29897V5.27821H10.5508C10.2027 5.23234 9.85274 5.34802 9.59948 5.59266C9.34622 5.8373 9.2171 6.18444 9.24848 6.53627V8.04786H11.4652L11.1108 10.3748H9.24848V15.9994C13.4519 15.3311 16.3995 11.4685 15.9559 7.21003C15.5122 2.95155 11.8326 -0.212046 7.5828 0.0111114C3.33297 0.234269 0.000675558 3.76606 0 8.04786Z" fill="#191A1A"/>
</g>
<defs>
<clipPath id="clip0_3_806">
<rect width="16" height="15.9994" fill="white"/>
</clipPath>
</defs>
</svg>
