<svg width="16" height="16" viewBox="0 0 16 16" fill="none" xmlns="http://www.w3.org/2000/svg">
<path d="M8 16C3.58172 16 0 12.4183 0 8C0 3.58172 3.58172 0 8 0C12.4183 0 16 3.58172 16 8C15.9952 12.4163 12.4163 15.9952 8 16ZM8 1.6C4.46538 1.6 1.6 4.46538 1.6 8C1.6 11.5346 4.46538 14.4 8 14.4C11.5346 14.4 14.4 11.5346 14.4 8C14.396 4.46702 11.533 1.60397 8 1.6ZM8 12.8C6.73602 12.8214 5.54128 12.224 4.8 11.2C4.44006 10.7186 4.16913 10.1768 4 9.6H12C12 9.6 12 9.6 12 9.6064C11.8283 10.1802 11.5575 10.7195 11.2 11.2C10.4586 12.2239 9.26395 12.8213 8 12.8ZM5.2 8C4.53726 8 4 7.46274 4 6.8C4 6.13726 4.53726 5.6 5.2 5.6C5.86274 5.6 6.4 6.13726 6.4 6.8C6.4 7.46274 5.86274 8 5.2 8ZM10.7944 7.9888C10.1348 7.9888 9.6 7.45405 9.6 6.7944C9.6 6.13475 10.1348 5.6 10.7944 5.6C11.454 5.6 11.9888 6.13475 11.9888 6.7944C11.9879 7.45368 11.4537 7.98792 10.7944 7.9888Z" fill="#191A1A"/>
</svg>
