<svg width="16" height="16" viewBox="0 0 16 16" fill="none" xmlns="http://www.w3.org/2000/svg">
<g clip-path="url(#clip0_140_1053)">
<path d="M8.88887 16H5.33332V5.33332H8.88887V7.1111C9.64676 6.14688 10.7961 5.57205 12.0222 5.54399C14.2272 5.55623 16.0064 7.35054 16 9.55554V16H12.4444V9.99998C12.3022 9.00676 11.4504 8.26983 10.4471 8.27198C10.0082 8.28586 9.59397 8.478 9.29993 8.80409C9.00588 9.13017 8.85744 9.56202 8.88887 9.99998V16ZM3.55555 16H0V5.33332H3.55555V16ZM1.77777 3.55555C0.795936 3.55555 0 2.75961 0 1.77777C0 0.795936 0.795936 0 1.77777 0C2.75961 0 3.55555 0.795936 3.55555 1.77777C3.55555 2.24927 3.36825 2.70145 3.03485 3.03485C2.70145 3.36825 2.24927 3.55555 1.77777 3.55555Z" fill="#191A1A"/>
</g>
<defs>
<clipPath id="clip0_140_1053">
<rect width="16" height="16" fill="white"/>
</clipPath>
</defs>
</svg>
