<svg width="16" height="16" viewBox="0 0 16 16" fill="none" xmlns="http://www.w3.org/2000/svg">
<path d="M16 12.4444C16 12.9354 15.602 13.3333 15.1111 13.3333H8.88889C8.39797 13.3333 8 12.9354 8 12.4444C8 11.9535 8.39797 11.5556 8.88889 11.5556H15.1111C15.602 11.5556 16 11.9535 16 12.4444ZM16 8C16 8.49092 15.602 8.88889 15.1111 8.88889H0.888889C0.397969 8.88889 0 8.49092 0 8C0 7.50908 0.397969 7.11111 0.888889 7.11111H15.1111C15.602 7.11111 16 7.50908 16 8ZM16 3.55555C16 4.04647 15.602 4.44444 15.1111 4.44444H0.888889C0.397969 4.44444 0 4.04647 0 3.55555C0 3.06463 0.397969 2.66666 0.888889 2.66666H15.1111C15.602 2.66666 16 3.06463 16 3.55555Z" fill="#191A1A"/>
</svg>
