<svg width="16" height="16" viewBox="0 0 16 16" fill="none" xmlns="http://www.w3.org/2000/svg">
<path d="M8.01202 16C7.12753 15.9957 6.41035 15.2831 6.4016 14.4H9.60641C9.60834 14.6138 9.56776 14.8259 9.48703 15.024C9.27673 15.5055 8.84746 15.8567 8.3333 15.968H8.32929H8.31888H8.31087H8.30205H8.29644C8.20282 15.9874 8.10761 15.9981 8.01202 16ZM14.4216 13.6H1.6024V12L3.20481 11.2V6.8C3.1626 5.67129 3.41788 4.5513 3.94512 3.552C4.46993 2.62521 5.36701 1.9671 6.40961 1.744V0H9.61442V1.744C11.6807 2.2352 12.8192 4.0304 12.8192 6.8V11.2L14.4216 12V13.6ZM16 6.4H14.3976C14.323 4.33112 13.3269 2.40361 11.6815 1.144L12.8192 0C13.7775 0.744383 14.5519 1.69849 15.0826 2.7888C15.6314 3.91762 15.9436 5.14646 16 6.4ZM1.6024 6.4H0C0.0563702 5.14646 0.368541 3.91761 0.917376 2.7888C1.44814 1.69849 2.22249 0.744383 3.18077 0L4.31848 1.144C2.6729 2.40346 1.6768 4.33106 1.6024 6.4Z" fill="#191A1A"/>
</svg>
