<svg width="16" height="16" viewBox="0 0 16 16" fill="none" xmlns="http://www.w3.org/2000/svg">
<g clip-path="url(#clip0_159_599)">
<path fill-rule="evenodd" clip-rule="evenodd" d="M6.25654 6.59074C7.2107 6.38494 7.71569 4.9724 7.3844 3.4355C7.05317 1.8986 6.01118 0.819455 5.05704 1.02514C4.1029 1.23073 3.59793 2.64333 3.92917 4.1802C4.2604 5.71696 5.30244 6.79625 6.25654 6.59074ZM3.60238 6.30908C4.24867 7.74283 4.05126 9.22974 3.16151 9.6311C2.27173 10.0325 1.02653 9.19591 0.380289 7.76245C-0.266005 6.32898 -0.0686234 4.84193 0.821157 4.44063C1.71094 4.03944 2.95608 4.87601 3.60238 6.30908ZM12.3976 6.30908C11.7513 7.74283 11.9487 9.22974 12.8386 9.6311C13.7283 10.0325 14.9734 9.19591 15.6198 7.76245C16.266 6.32898 16.0686 4.84193 15.1788 4.44063C14.2891 4.03944 13.0439 4.87601 12.3976 6.30908ZM8.5919 3.43682C8.2609 4.9737 8.76553 6.38639 9.71963 6.5919C10.6738 6.7977 11.7158 5.7184 12.047 4.18155C12.3783 2.64465 11.8734 1.23205 10.9192 1.02645C9.96499 0.820823 8.92301 1.89992 8.5919 3.43682ZM4.13178 10.761C4.87817 10.3068 5.95728 8.97534 6.19015 8.57313C7.53694 6.24826 9.41203 7.57684 9.78042 8.30224C10.1489 9.02793 11.3447 10.6086 12.0609 11.1371C12.777 11.6658 13.6947 12.5975 13.2844 14.06C12.874 15.5224 11.1218 15.6683 9.73348 15.4758C8.58081 15.3161 7.04474 15.4198 5.96615 15.4927C5.74559 15.5076 5.54416 15.5212 5.36905 15.531C4.33766 15.589 2.77095 14.9352 2.61583 13.4076C2.46063 11.8804 3.38546 11.2152 4.13178 10.761Z" fill="#191A1A"/>
</g>
<defs>
<clipPath id="clip0_159_599">
<rect width="16" height="16" fill="white"/>
</clipPath>
</defs>
</svg>
