<svg width="16" height="16" viewBox="0 0 16 16" fill="none" xmlns="http://www.w3.org/2000/svg">
<path d="M14.1153 4.01829C14.801 3.61458 15.314 2.97889 15.5587 2.22991C14.9144 2.60642 14.2094 2.87165 13.4743 3.01412C12.4552 1.95234 10.8404 1.69395 9.53238 2.38333C8.22433 3.07271 7.5468 4.5392 7.87838 5.96336C5.23921 5.83286 2.78035 4.60506 1.11368 2.58548C0.243878 4.06305 0.688366 5.9519 2.12946 6.90199C1.60834 6.88549 1.09879 6.74654 0.643274 6.49671C0.643274 6.51027 0.643274 6.52383 0.643274 6.53739C0.643575 8.07653 1.745 9.40232 3.2768 9.70735C2.79343 9.83687 2.28642 9.85593 1.79444 9.7631C2.22522 11.0793 3.45697 11.9811 4.86089 12.008C3.69812 12.9068 2.26215 13.3942 0.784014 13.3918C0.522016 13.3922 0.260224 13.3774 0 13.3474C1.50102 14.2973 3.24801 14.8016 5.03222 14.7998C7.51448 14.8166 9.90001 13.8528 11.6552 12.124C13.4104 10.3952 14.3888 8.04572 14.3715 5.60101C14.3715 5.4609 14.3682 5.32153 14.3616 5.18292C15.0045 4.72536 15.5593 4.15852 16 3.50905C15.4011 3.7705 14.7658 3.94215 14.1153 4.01829Z" fill="#191A1A"/>
</svg>
