<svg width="16" height="16" viewBox="0 0 16 16" fill="none" xmlns="http://www.w3.org/2000/svg">
<path d="M0 14.1988H1.62651C1.62651 12.4022 3.08294 10.9458 4.87954 10.9458C6.67613 10.9458 8.13256 12.4022 8.13256 14.1988H9.75907C9.75907 11.5039 7.57443 9.3193 4.87954 9.3193C2.18464 9.3193 0 11.5039 0 14.1988Z" fill="#191A1A"/>
<path d="M1.62651 5.25302C1.62651 3.45643 3.08294 2 4.87954 2C6.67613 2 8.13256 3.45643 8.13256 5.25302C8.13032 7.04869 6.6752 8.50381 4.87954 8.50605C3.08294 8.50605 1.62651 7.04962 1.62651 5.25302ZM3.25484 5.22972C3.24211 6.11819 3.94475 6.85246 4.83293 6.87882C5.7211 6.90518 6.46606 6.21388 6.50605 5.32622V5.25302C6.50605 4.35473 5.77783 3.62651 4.87954 3.62651C3.99097 3.62741 3.26757 4.34124 3.25484 5.22972Z" fill="#191A1A"/>
<path d="M13.2878 10.9453C13.1186 10.7949 12.9275 10.6379 12.725 10.472L12.6868 10.4411L12.6823 10.4374C11.7421 9.67035 10.5723 8.71594 10.5723 7.52967C10.5725 7.13601 10.7311 6.759 11.0125 6.48372C11.2939 6.20844 11.6743 6.0581 12.0679 6.06662C12.5332 6.06537 12.977 6.2627 13.2878 6.60907C13.5986 6.26279 14.0424 6.06547 14.5077 6.06662C14.9008 6.05898 15.2805 6.20982 15.5612 6.48518C15.8419 6.76055 16.0001 7.13726 16 7.53049C16 8.72169 14.8212 9.68315 13.8733 10.4562L13.8709 10.4582L13.8245 10.4964L13.8098 10.5085C13.6225 10.6618 13.4455 10.8067 13.287 10.947L13.2878 10.9453Z" fill="#191A1A"/>
</svg>
