<svg width="16" height="16" viewBox="0 0 16 16" fill="none" xmlns="http://www.w3.org/2000/svg">
<g clip-path="url(#clip0_140_651)">
<path fill-rule="evenodd" clip-rule="evenodd" d="M15.7719 7.99516C15.7185 8.01797 15.6603 8.02887 15.6019 8.02702C15.5539 8.02298 15.5071 8.01037 15.464 7.98985C15.4569 8.18587 15.4357 8.37852 15.411 8.57117C15.4633 8.55962 15.5177 8.55962 15.5701 8.57117C15.6699 8.58775 15.7588 8.64158 15.8172 8.72081C15.8755 8.80004 15.8986 8.89818 15.8812 8.99365C15.8639 9.08911 15.8076 9.17408 15.7247 9.22985C15.6418 9.28563 15.5391 9.30765 15.4392 9.29107C15.3862 9.2817 15.3357 9.26215 15.2908 9.23361C15.2448 9.42288 15.1953 9.61215 15.1352 9.79466C15.1879 9.7916 15.2408 9.7985 15.2908 9.81494C15.3654 9.86003 15.4216 9.92827 15.4499 10.0082C15.4783 10.0882 15.477 10.175 15.4463 10.2542C15.4157 10.3334 15.3575 10.4001 15.2816 10.4432C15.2056 10.4863 15.1165 10.5031 15.0291 10.4909C14.9795 10.472 14.9339 10.4445 14.8947 10.4098C14.8169 10.5957 14.7286 10.7647 14.6366 10.9337C14.6901 10.9396 14.7418 10.9557 14.7887 10.981C14.8768 11.0294 14.9412 11.1093 14.9678 11.2031C14.9943 11.2969 14.9807 11.3969 14.9301 11.4812C14.8795 11.5654 14.7959 11.627 14.6977 11.6524C14.5996 11.6777 14.495 11.6648 14.4068 11.6164C14.3596 11.5897 14.3187 11.554 14.2866 11.5116C14.1734 11.6738 14.0556 11.8327 13.933 11.9881C13.9859 12.0021 14.0352 12.0263 14.078 12.0591C14.1558 12.1214 14.2046 12.2107 14.2135 12.3074C14.2225 12.404 14.1909 12.5001 14.1257 12.5745C14.0605 12.6489 13.9671 12.6955 13.866 12.7041C13.7649 12.7127 13.6643 12.6825 13.5865 12.6202C13.5441 12.5874 13.5102 12.5458 13.4875 12.4985C13.3496 12.6404 13.2046 12.7756 13.0561 12.9075C13.1053 12.9311 13.1487 12.9645 13.1834 13.0055C13.2485 13.0795 13.2802 13.1751 13.2716 13.2714C13.2629 13.3677 13.2147 13.4568 13.1375 13.5192C13.0595 13.5816 12.9588 13.612 12.8575 13.6037C12.7562 13.5955 12.6623 13.5493 12.5965 13.4753C12.5628 13.434 12.5376 13.3869 12.5222 13.3367C12.3596 13.4584 12.1934 13.571 12.0237 13.6747C12.0681 13.7054 12.1054 13.7445 12.1333 13.7896C12.1839 13.8738 12.1975 13.9739 12.171 14.0677C12.1444 14.1615 12.08 14.2414 11.9919 14.2898C11.9037 14.3382 11.799 14.3511 11.7009 14.3258C11.6028 14.3004 11.5192 14.2389 11.4686 14.1546C11.4426 14.1096 11.4258 14.0603 11.4191 14.0093C11.355 14.0382 11.2939 14.0668 11.2342 14.0948C11.1429 14.1376 11.0547 14.179 10.9631 14.218L11.7762 16H10.5529L10.0958 14.5236C9.94625 14.5647 9.7934 14.6006 9.64056 14.6345C9.67041 14.6775 9.69085 14.7258 9.70066 14.7765C9.70925 14.8238 9.70802 14.8722 9.69703 14.919C9.68605 14.9658 9.66552 15.0101 9.63663 15.0493C9.60774 15.0885 9.57104 15.122 9.52864 15.1476C9.48624 15.1733 9.43898 15.1907 9.38953 15.199C9.34008 15.2072 9.2894 15.206 9.24043 15.1955C9.19145 15.185 9.14514 15.1654 9.1041 15.1377C9.06306 15.1101 9.02811 15.0751 9.00125 15.0345C8.97439 14.994 8.95615 14.9488 8.94756 14.9015C8.93547 14.8515 8.93547 14.7995 8.94756 14.7494C8.92547 14.752 8.90338 14.7547 8.88128 14.7573C8.70179 14.7787 8.52199 14.8001 8.33939 14.8001C8.36482 14.8562 8.37527 14.9174 8.3698 14.9783C8.36432 15.0392 8.34308 15.0978 8.30801 15.1489C8.27294 15.1999 8.22515 15.2419 8.1689 15.2709C8.11266 15.2999 8.04973 15.3151 7.98581 15.3151C7.92189 15.3151 7.85899 15.2999 7.80274 15.2709C7.7465 15.2419 7.69868 15.1999 7.66361 15.1489C7.62854 15.0978 7.6073 15.0392 7.60183 14.9783C7.59635 14.9174 7.6068 14.8562 7.63223 14.8001C7.42716 14.7934 7.22561 14.7731 7.02761 14.7494C7.03651 14.7998 7.03651 14.8512 7.02761 14.9015C7.00299 14.9906 6.94432 15.0677 6.86318 15.1175C6.78205 15.1673 6.68433 15.1862 6.58932 15.1705C6.49432 15.1548 6.40893 15.1056 6.34999 15.0327C6.29106 14.9597 6.26286 14.8683 6.27097 14.7765C6.28077 14.7258 6.30121 14.6775 6.33107 14.6345C6.16897 14.5986 6.00925 14.5603 5.84996 14.5161L5.39061 16H4.16724L4.98399 14.21C4.83326 14.1478 4.69416 14.08 4.55063 14.01L4.54904 14.0093C4.54437 14.0607 4.52743 14.1104 4.49954 14.1546C4.47508 14.1972 4.44195 14.2348 4.40212 14.265C4.36229 14.2952 4.31654 14.3175 4.26756 14.3306C4.21858 14.3437 4.16737 14.3473 4.11691 14.3413C4.06645 14.3352 4.01776 14.3195 3.97372 14.2952C3.92968 14.2709 3.89115 14.2384 3.86042 14.1997C3.82969 14.1609 3.80736 14.1167 3.79475 14.0696C3.78214 14.0225 3.7795 13.9735 3.78698 13.9254C3.79447 13.8773 3.81194 13.8311 3.83835 13.7896C3.86625 13.7445 3.90356 13.7054 3.94795 13.6747C3.77588 13.5665 3.60968 13.4539 3.4494 13.3367C3.4341 13.3877 3.40759 13.4349 3.37162 13.4753C3.30645 13.5497 3.21302 13.5963 3.1119 13.6048C3.01077 13.6134 2.91024 13.5832 2.8324 13.5209C2.75457 13.4586 2.70583 13.3693 2.69688 13.2726C2.68792 13.176 2.71949 13.0799 2.78467 13.0055C2.8206 12.9644 2.8652 12.931 2.91551 12.9075C2.76701 12.7756 2.62203 12.6404 2.48413 12.4985C2.46066 12.5454 2.42691 12.5869 2.38514 12.6202C2.3466 12.651 2.30208 12.6743 2.25413 12.6887C2.20617 12.7031 2.15572 12.7083 2.10565 12.7041C2.05558 12.6999 2.00687 12.6862 1.96231 12.664C1.91775 12.6418 1.8782 12.6114 1.84593 12.5745C1.81366 12.5377 1.78928 12.4952 1.77421 12.4493C1.75915 12.4035 1.75368 12.3552 1.75812 12.3074C1.76255 12.2595 1.77681 12.213 1.80007 12.1704C1.82332 12.1278 1.85513 12.09 1.89366 12.0591C1.93602 12.0257 1.98548 12.0015 2.03862 11.9881C1.91369 11.8327 1.79583 11.6738 1.68504 11.5116C1.65291 11.554 1.612 11.5897 1.56484 11.6164C1.4774 11.6563 1.37741 11.6633 1.28481 11.636C1.1922 11.6086 1.11377 11.5489 1.06516 11.4688C1.01654 11.3886 1.00132 11.2939 1.02249 11.2035C1.04367 11.1131 1.0997 11.0336 1.17943 10.981C1.22756 10.9556 1.28041 10.9396 1.335 10.9337C1.24307 10.7647 1.15469 10.5889 1.0769 10.4098C1.03713 10.4438 0.99172 10.4712 0.942538 10.4909C0.89401 10.5202 0.839235 10.5388 0.782236 10.5453C0.725237 10.5518 0.667456 10.546 0.613086 10.5284C0.558716 10.5108 0.509129 10.4818 0.467978 10.4436C0.426826 10.4053 0.395143 10.3588 0.375224 10.3073C0.355305 10.2558 0.347651 10.2008 0.352845 10.1461C0.358038 10.0915 0.375948 10.0386 0.405243 9.99145C0.434537 9.94426 0.474477 9.90393 0.522167 9.87339C0.569856 9.84285 0.624096 9.82288 0.680893 9.81494C0.730746 9.79805 0.783704 9.79114 0.836468 9.79466C0.77636 9.61215 0.723322 9.42288 0.680893 9.23361C0.63536 9.26105 0.585056 9.28051 0.532375 9.29107C0.432504 9.3081 0.329648 9.28651 0.24643 9.23105C0.163213 9.17559 0.106449 9.0908 0.088632 8.99534C0.0708148 8.89987 0.0934116 8.80155 0.151432 8.72201C0.209452 8.64246 0.298143 8.5882 0.398013 8.57117C0.451492 8.55909 0.507188 8.55909 0.560667 8.57117C0.532381 8.37852 0.504104 8.18587 0.504104 7.98985C0.455421 8.01175 0.402336 8.02329 0.348528 8.02364C0.253137 8.01488 0.164574 7.97246 0.100134 7.90466C0.0356947 7.83686 0 7.74854 0 7.65694C0 7.56533 0.0356947 7.47701 0.100134 7.40921C0.164574 7.34141 0.253137 7.29899 0.348528 7.29023C0.402336 7.29058 0.455421 7.30212 0.504104 7.32403C0.514711 7.128 0.532381 6.93535 0.560667 6.74608C0.506817 6.75459 0.451863 6.75459 0.398013 6.74608C0.304049 6.72285 0.222726 6.66658 0.170272 6.58852C0.117817 6.51046 0.0980993 6.41636 0.115068 6.32501C0.132037 6.23366 0.184433 6.1518 0.261796 6.09578C0.339158 6.03975 0.435786 6.01369 0.532375 6.0228C0.585056 6.03336 0.63536 6.05282 0.680893 6.08026C0.723322 5.89099 0.77636 5.7051 0.836468 5.51921C0.78366 5.52443 0.730313 5.51747 0.680893 5.49893C0.626653 5.48871 0.575364 5.46735 0.530605 5.43634C0.485846 5.40532 0.448674 5.36538 0.421644 5.31928C0.394613 5.27318 0.37838 5.22203 0.374058 5.16934C0.369737 5.11666 0.377426 5.06371 0.39661 5.01415C0.415794 4.96458 0.446023 4.9196 0.485178 4.88229C0.524332 4.84498 0.571492 4.81625 0.623402 4.79807C0.675312 4.77989 0.730718 4.7727 0.785818 4.777C0.840919 4.7813 0.8944 4.79699 0.942538 4.82297C0.993183 4.83992 1.03913 4.86766 1.0769 4.90409C1.15448 4.71533 1.2426 4.5501 1.33426 4.37823L1.335 4.37684C1.27999 4.37288 1.22672 4.35668 1.17943 4.32952C1.13601 4.30533 1.098 4.27321 1.06758 4.23498C1.03715 4.19675 1.01491 4.15317 1.0021 4.10672C0.989295 4.06027 0.986185 4.01186 0.99295 3.96427C0.999716 3.91667 1.01622 3.87081 1.04153 3.82931C1.06683 3.78781 1.10044 3.75149 1.14043 3.7224C1.18043 3.69332 1.22603 3.67205 1.27462 3.65981C1.32321 3.64757 1.37386 3.6446 1.42366 3.65107C1.47345 3.65753 1.52142 3.67331 1.56484 3.6975C1.612 3.72417 1.65291 3.75984 1.68504 3.80227C1.79583 3.63554 1.91369 3.47669 2.03862 3.32572C1.98486 3.31218 1.9352 3.2867 1.89366 3.25137C1.81588 3.18948 1.76699 3.10062 1.75771 3.00429C1.74842 2.90797 1.77951 2.81206 1.84416 2.73764C1.88423 2.68694 1.93755 2.64723 1.99878 2.6225C2.06002 2.59777 2.12699 2.5889 2.19295 2.59678C2.2589 2.60467 2.32152 2.62902 2.3745 2.66739C2.42748 2.70577 2.46897 2.75681 2.49475 2.81537C2.63265 2.67342 2.7776 2.53485 2.92611 2.40304C2.8767 2.37957 2.83233 2.34748 2.79528 2.3084C2.73044 2.23343 2.69923 2.13697 2.70851 2.04009C2.71778 1.94322 2.76678 1.85378 2.84479 1.79129C2.92265 1.7295 3.02297 1.69977 3.12374 1.70865C3.22451 1.71752 3.31748 1.76426 3.38222 1.83861C3.41918 1.87831 3.44584 1.92579 3.46001 1.97718C3.61795 1.85551 3.78412 1.74285 3.95855 1.6392C3.91416 1.60849 3.87685 1.56937 3.84894 1.52429C3.82364 1.48279 3.80713 1.43693 3.80036 1.38934C3.7936 1.34174 3.79671 1.29333 3.80951 1.24689C3.82232 1.20044 3.84456 1.15685 3.87499 1.11862C3.90541 1.08039 3.94343 1.04827 3.98684 1.02408C4.03026 0.99989 4.07823 0.984111 4.12802 0.977644C4.17782 0.971177 4.22847 0.974148 4.27706 0.986388C4.32565 0.998628 4.37123 1.0199 4.41123 1.04898C4.45122 1.07806 4.48483 1.11439 4.51013 1.15589C4.53854 1.20109 4.5555 1.25202 4.55964 1.3046C4.60318 1.28454 4.64518 1.26496 4.68621 1.24584C4.83175 1.178 4.96503 1.11588 5.11122 1.05788C5.07452 1.02071 5.0457 0.977095 5.02636 0.929445C5.00734 0.843951 5.02103 0.75477 5.06497 0.678116C5.10891 0.601461 5.18018 0.542422 5.2658 0.511732C5.35142 0.481041 5.44571 0.480737 5.53155 0.510875C5.61738 0.541012 5.68904 0.59959 5.73352 0.67596C5.7427 0.727866 5.73906 0.781104 5.7229 0.831431C5.91737 0.773974 6.11185 0.723277 6.30985 0.682719C6.28115 0.639196 6.2608 0.591125 6.24975 0.540768C6.24022 0.448441 6.26747 0.356076 6.32608 0.282126C6.38469 0.208177 6.47035 0.158088 6.56591 0.141868C6.66147 0.125647 6.75992 0.14449 6.84158 0.19463C6.92324 0.24477 6.98209 0.322516 7.00639 0.412336C7.0153 0.46381 7.0153 0.516332 7.00639 0.567806C7.2044 0.540768 7.40594 0.51373 7.61102 0.51373C7.58875 0.467107 7.57786 0.416254 7.57919 0.365018C7.57919 0.268209 7.61943 0.175366 7.69104 0.106911C7.76265 0.0384572 7.85978 0 7.96106 0C8.06234 0 8.15946 0.0384572 8.23108 0.106911C8.30269 0.175366 8.34293 0.268209 8.34293 0.365018C8.34256 0.416452 8.3305 0.467194 8.30758 0.51373C8.51266 0.523869 8.71419 0.540768 8.91572 0.567806C8.90309 0.516687 8.90309 0.463455 8.91572 0.412336C8.93495 0.31463 8.994 0.228227 9.07987 0.172132C9.16574 0.116038 9.27139 0.0948476 9.3736 0.113223C9.47582 0.131599 9.56621 0.188036 9.62489 0.270117C9.68357 0.352199 9.70575 0.453202 9.68652 0.550907C9.67548 0.601265 9.65513 0.649335 9.62642 0.692859C9.82442 0.733416 10.0224 0.784113 10.2134 0.84157C10.21 0.790035 10.2172 0.738366 10.2346 0.689479C10.2818 0.617531 10.3535 0.563376 10.4377 0.53618C10.5218 0.508983 10.6132 0.510415 10.6964 0.540232C10.7796 0.57005 10.8495 0.626423 10.8942 0.69981C10.9389 0.773198 10.9557 0.859095 10.9417 0.942964C10.9211 0.989977 10.8924 1.03338 10.8569 1.0714C11.0438 1.14472 11.2267 1.22707 11.4049 1.31812C11.4111 1.26594 11.4279 1.21542 11.4544 1.16941C11.5095 1.0932 11.5927 1.03964 11.6872 1.01939C11.7818 0.999149 11.8809 1.01371 11.9648 1.06018C12.0486 1.10665 12.1111 1.18162 12.1397 1.27013C12.1683 1.35865 12.161 1.45423 12.1191 1.53781C12.0912 1.58289 12.0539 1.62201 12.0095 1.65272C12.1793 1.76088 12.3454 1.87354 12.5081 1.9907C12.522 1.93991 12.5473 1.89262 12.5823 1.85213C12.6146 1.81529 12.6542 1.78489 12.6987 1.76266C12.7433 1.74043 12.792 1.72681 12.8421 1.72257C12.8921 1.71833 12.9426 1.72356 12.9905 1.73797C13.0385 1.75237 13.083 1.77566 13.1215 1.8065C13.1601 1.83735 13.1919 1.87515 13.2151 1.91775C13.2384 1.96034 13.2526 2.0069 13.2571 2.05476C13.2615 2.10262 13.256 2.15085 13.241 2.19669C13.2259 2.24253 13.2016 2.28508 13.1693 2.32192C13.1335 2.36089 13.0903 2.39301 13.042 2.41656C13.1905 2.54837 13.3355 2.68694 13.4734 2.82889C13.4956 2.78036 13.5295 2.73753 13.5723 2.70384C13.65 2.65228 13.7448 2.63007 13.8386 2.64151C13.9324 2.65295 14.0184 2.69722 14.0799 2.76576C14.1415 2.8343 14.1743 2.92224 14.172 3.01257C14.1697 3.10289 14.1324 3.18918 14.0674 3.25475C14.0258 3.29008 13.9762 3.31556 13.9224 3.3291C14.0497 3.48232 14.1675 3.64117 14.276 3.80565C14.3081 3.76322 14.349 3.72755 14.3962 3.70088C14.4397 3.67564 14.488 3.65895 14.5383 3.65179C14.5886 3.64464 14.6399 3.64716 14.6891 3.65922C14.7384 3.67127 14.7847 3.69261 14.8252 3.72199C14.8657 3.75137 14.8997 3.78818 14.9251 3.83028C14.9506 3.87238 14.967 3.91892 14.9733 3.96715C14.9797 4.01539 14.9759 4.06435 14.9622 4.11117C14.9485 4.15799 14.9252 4.20172 14.8935 4.2398C14.8619 4.27787 14.8227 4.30953 14.7781 4.3329C14.7318 4.35957 14.6798 4.37575 14.626 4.38022C14.6594 4.44896 14.6923 4.51369 14.7245 4.57684C14.7808 4.68755 14.8346 4.7934 14.8841 4.90747C14.9219 4.87104 14.9678 4.8433 15.0185 4.82635C15.0666 4.80037 15.1201 4.78468 15.1752 4.78038C15.2303 4.77608 15.2857 4.78327 15.3376 4.80145C15.3895 4.81963 15.4367 4.84836 15.4759 4.88567C15.515 4.92298 15.5452 4.96796 15.5644 5.01753C15.5836 5.06709 15.5913 5.12004 15.587 5.17272C15.5826 5.22541 15.5664 5.27656 15.5394 5.32266C15.5124 5.36876 15.4752 5.4087 15.4304 5.43971C15.3856 5.47073 15.3344 5.49209 15.2801 5.50231C15.2305 5.52013 15.1774 5.52706 15.1246 5.52259C15.1847 5.70848 15.2342 5.89437 15.2801 6.08364C15.3229 6.05592 15.371 6.03641 15.4216 6.02618C15.5176 6.01843 15.6133 6.04539 15.6896 6.10173C15.7659 6.15807 15.8173 6.2397 15.8337 6.33051C15.8502 6.42133 15.8304 6.51473 15.7783 6.59229C15.7262 6.66984 15.6456 6.72592 15.5524 6.74946C15.4997 6.75797 15.4459 6.75797 15.3933 6.74946C15.3957 6.76777 15.3981 6.78611 15.4005 6.80448C15.4232 6.97603 15.4463 7.15034 15.4463 7.32741C15.4989 7.30299 15.5567 7.29035 15.6152 7.29043C15.6736 7.29051 15.7314 7.30331 15.7839 7.32787C15.8364 7.35242 15.8824 7.38808 15.9184 7.43216C15.9544 7.47623 15.9794 7.52755 15.9916 7.58223C16.0037 7.63691 16.0027 7.69353 15.9886 7.74778C15.9745 7.80203 15.9476 7.8525 15.9101 7.89536C15.8725 7.93822 15.8253 7.97235 15.7719 7.99516ZM5.16237 13.8191L5.02936 14.1106C4.78665 14.01 4.54959 13.8973 4.31921 13.7727L4.496 13.4989C4.7122 13.6167 4.93463 13.7235 5.16237 13.8191ZM7.59742 8.48238L5.2065 13.7223C4.98908 13.6303 4.77671 13.5275 4.57025 13.4144L7.6782 8.27037L7.59742 8.48238ZM6.00973 14L7.73067 8.44077L7.78427 8.30079L6.70586 14.1546C6.47096 14.1152 6.23857 14.0636 6.00973 14ZM5.88401 14.4061L5.9784 14.1012C6.20592 14.1656 6.43694 14.2184 6.67051 14.2594L6.61039 14.5703C6.36527 14.528 6.1228 14.4732 5.88401 14.4061ZM9.9621 14.0916L10.0558 14.3944C9.80326 14.4666 9.54657 14.5253 9.28698 14.5703L9.23747 14.2594C9.48214 14.2162 9.72404 14.1602 9.9621 14.0916ZM8.25793 8.58649L9.93382 14.0002C9.697 14.0671 9.45624 14.1209 9.21274 14.1614L8.15201 8.30755L8.25793 8.58649ZM10.9161 14.1149C11.1495 14.019 11.3775 13.9115 11.5994 13.793L11.4332 13.5192C11.2219 13.6311 11.005 13.7327 10.7832 13.8236L10.9161 14.1149ZM10.7369 13.7223C10.9604 13.6285 11.1787 13.5235 11.3908 13.4077L8.26513 8.27037L8.34431 8.47853L10.7369 13.7223ZM14.9053 6.55005C14.9658 6.89864 14.9977 7.25121 15.0008 7.60455H15.3332C15.3297 7.23302 15.2954 6.86233 15.2306 6.49597L14.9053 6.55005ZM13.9825 4.41064L8.60104 7.38148L14.4457 5.34684C14.3172 5.02364 14.1624 4.71061 13.9825 4.41064ZM14.7639 6.46894C14.7003 6.12415 14.6069 5.785 14.4846 5.455L8.63992 7.50315L14.7639 6.46894ZM9.21274 1.16603L8.15201 7.01984L10.2735 1.43303C9.928 1.31687 9.57326 1.22758 9.21274 1.16603ZM11.3908 1.91297C11.07 1.74133 10.7354 1.59441 10.3901 1.47359L8.28283 7.0604L11.3908 1.91297ZM8.03178 1.0545V6.99956L9.09251 1.14575C8.742 1.0887 8.38732 1.05819 8.03178 1.0545ZM6.8296 1.14575L7.91155 6.99956V1.0545C7.54894 1.05745 7.18715 1.08796 6.8296 1.14575ZM5.66988 1.43303L7.79135 7.01984L6.73061 1.16603C6.37023 1.22819 6.01555 1.31746 5.66988 1.43303ZM4.57025 1.91297L7.6782 7.0604L5.54965 1.47359C5.21162 1.59524 4.88415 1.74215 4.57025 1.91297ZM1.17589 6.45542L7.29987 7.48964L1.45523 5.44148C1.33459 5.77197 1.24118 6.11099 1.17589 6.45542ZM1.95023 4.41064C1.77153 4.71068 1.61784 5.02372 1.49058 5.34684L7.33524 7.38148L1.95023 4.41064ZM1.05922 7.60455H7.27158L1.15468 6.57033C1.09422 6.91211 1.06231 7.25794 1.05922 7.60455ZM1.14762 8.7503L7.27158 7.71946H1.05215C1.05507 8.06496 1.087 8.40968 1.14762 8.7503ZM1.44815 9.86226L7.29279 7.83438L1.16883 8.84832C1.23322 9.19293 1.32663 9.53202 1.44815 9.86226ZM1.95023 10.9134L7.33524 7.94253L1.49058 9.97379C1.61783 10.298 1.77152 10.6122 1.95023 10.9134ZM7.91155 14.2661V8.32783L6.8296 14.1749C7.18715 14.2327 7.54894 14.2632 7.91155 14.2661ZM9.09251 14.1816L8.03178 8.32783V14.2729C8.38732 14.2692 8.742 14.2387 9.09251 14.1816ZM14.7639 8.87197L8.63992 7.84114L14.4846 9.88591C14.6078 9.55617 14.7012 9.21695 14.7639 8.87197ZM13.9825 10.9201C14.1624 10.619 14.3173 10.3048 14.4457 9.98055L8.60104 7.94253L13.9825 10.9201ZM14.8806 7.72622H8.66116L14.7851 8.75706C14.8457 8.41644 14.8777 8.07172 14.8806 7.72622ZM14.7851 6.57709L8.66116 7.61131H14.8806C14.8775 7.26469 14.8456 6.91886 14.7851 6.57709ZM14.5977 5.43134C14.7222 5.76123 14.8179 6.10036 14.8841 6.44528L15.2094 6.39458C15.1405 6.03009 15.04 5.67172 14.9089 5.32318L14.5977 5.43134ZM14.1027 4.35318C14.2849 4.65882 14.4422 4.97747 14.573 5.30628L14.8841 5.20827C14.747 4.85847 14.5815 4.51946 14.3891 4.19433L14.1027 4.35318ZM13.3956 3.3798C13.6351 3.65357 13.8515 3.94516 14.0426 4.25179L14.3149 4.08618C14.1182 3.76635 13.8947 3.4623 13.6466 3.17701L13.3956 3.3798ZM8.55507 7.28009L13.9365 4.30924H13.9224C13.7439 4.01207 13.5418 3.72845 13.3178 3.46091L8.55507 7.28009ZM12.4515 2.63962L8.47729 7.19221L13.2223 3.3798C12.9864 3.11381 12.7287 2.86629 12.4515 2.63962ZM11.4933 1.97042L8.38182 7.11786L12.3808 2.56527C12.1015 2.3454 11.8047 2.14653 11.4933 1.97042ZM11.7267 1.59527L11.564 1.87241H11.5393C11.8659 2.04964 12.1769 2.25197 12.4692 2.47739L12.6813 2.23405C12.3811 1.99763 12.0619 1.78405 11.7267 1.59527ZM10.4326 1.35192C10.7865 1.47903 11.1294 1.63273 11.458 1.81157L11.6065 1.52429C11.2673 1.33958 10.9124 1.18243 10.5457 1.0545L10.4326 1.35192ZM9.2693 1.05112C9.63004 1.11481 9.98478 1.20637 10.33 1.32488L10.4503 1.02746C10.0838 0.904079 9.70786 0.80803 9.32587 0.740176L9.2693 1.05112ZM8.0424 0.939584C8.41088 0.94239 8.77855 0.972902 9.14202 1.03084L9.20212 0.719897C8.81883 0.658178 8.43107 0.625405 8.0424 0.621883V0.939584ZM6.81901 1.03084C7.18369 0.973043 7.55253 0.942532 7.92217 0.939584V0.621883C7.53349 0.62525 7.14569 0.658024 6.76242 0.719897L6.81901 1.03084ZM5.64159 1.32488C5.9867 1.20595 6.34148 1.11439 6.70232 1.05112L6.6316 0.726657C6.25066 0.79409 5.87589 0.890149 5.51076 1.01394L5.64159 1.32488ZM5.49309 1.36544L5.37994 1.06802C5.01709 1.19699 4.66588 1.35411 4.32982 1.53781L4.496 1.81157C4.81582 1.63849 5.14918 1.48933 5.49309 1.36544ZM3.48477 2.47739C3.76855 2.25225 4.07129 2.0499 4.38993 1.87241L4.22373 1.59527C3.88915 1.78326 3.57106 1.99689 3.27261 2.23405L3.48477 2.47739ZM4.45363 1.97639L7.55797 7.11786L3.5767 2.56527C3.85288 2.34788 4.14604 2.15102 4.45363 1.97639ZM2.71749 3.3798L7.46606 7.19221L3.48477 2.64638C3.20994 2.87191 2.95343 3.11709 2.71749 3.3798ZM2.00327 4.30924L7.38826 7.28009L2.62557 3.46091C2.39556 3.72793 2.18751 4.01155 2.00327 4.30924ZM1.61081 4.07942L1.90072 4.23827L1.91488 4.25179C2.09662 3.94376 2.30352 3.64993 2.53364 3.37304L2.27905 3.17025C2.03095 3.45554 1.80748 3.75959 1.61081 4.07942ZM1.37035 5.29277C1.49996 4.96403 1.65601 4.64538 1.83708 4.33966L1.55068 4.17067C1.35798 4.49516 1.19361 4.83429 1.05922 5.18461L1.37035 5.29277ZM1.05569 6.42162C1.12517 6.07742 1.22089 5.73854 1.34208 5.40768L1.03093 5.29277C0.901428 5.64179 0.800923 6.00003 0.730378 6.36416L1.05569 6.42162ZM0.938998 7.59441C0.942082 7.24107 0.974008 6.8885 1.03447 6.53991L0.709164 6.48584C0.644435 6.85219 0.610156 7.22288 0.606634 7.59441H0.938998ZM1.03447 8.76044C0.973861 8.413 0.941933 8.06155 0.938998 7.70932H0.606634C0.610165 8.07973 0.644444 8.44929 0.709164 8.81452L1.03447 8.76044ZM1.34208 9.88929C1.22132 9.55831 1.12561 9.21946 1.05569 8.87535L0.730378 8.92267C0.801364 9.28781 0.901858 9.64715 1.03093 9.99745L1.34208 9.88929ZM1.84416 10.9708C1.66362 10.6611 1.50989 10.3379 1.38451 10.0042L1.06274 10.1157C1.19729 10.466 1.36167 10.8051 1.55422 11.1297L1.84416 10.9708ZM2.55131 11.9375C2.31608 11.6616 2.10331 11.369 1.91488 11.0621L1.62848 11.2277C1.82598 11.5481 2.04942 11.8532 2.29675 12.1402L2.55131 11.9375ZM7.4024 8.0304L2.01741 11.0012V11.0114C2.20076 11.3107 2.40886 11.5955 2.63971 11.8631L7.4024 8.0304ZM3.48477 12.6709L7.4802 8.12166L2.71749 11.9375C2.9525 12.201 3.20908 12.4462 3.48477 12.6709ZM4.46416 13.3502L7.57213 8.19601L3.5767 12.7554C3.85604 12.9752 4.15273 13.1741 4.46416 13.3502ZM4.38894 13.4431L4.22373 13.7152C3.88915 13.5272 3.57106 13.3136 3.27261 13.0764L3.48477 12.8365C3.76905 13.061 4.07137 13.2639 4.38894 13.4431ZM7.89742 14.3709C7.52777 14.368 7.15893 14.3374 6.79426 14.2797L6.73769 14.5906C7.12096 14.6525 7.50874 14.6852 7.89742 14.6886V14.3709ZM9.11727 14.2797C8.7538 14.3376 8.38612 14.3681 8.01764 14.3709V14.6886C8.40631 14.6851 8.79408 14.6523 9.17737 14.5906L9.11727 14.2797ZM12.4515 12.8432C12.1597 13.0697 11.85 13.2742 11.5251 13.455L11.709 13.722C12.0442 13.5332 12.3634 13.3196 12.6636 13.0832L12.4515 12.8432ZM8.35353 8.20953L11.465 13.3536L11.4792 13.3502C11.7856 13.1746 12.0776 12.9769 12.3525 12.7587L8.35353 8.20953ZM13.2082 11.951L8.449 8.13518L12.4515 12.681C12.7242 12.4579 12.9773 12.2137 13.2082 11.951ZM13.9082 11.0148L8.5268 8.04392L13.2895 11.8665C13.5192 11.5988 13.7261 11.314 13.9082 11.0148ZM14.0186 11.0881C13.8294 11.3907 13.6164 11.6792 13.3814 11.951L13.6325 12.1538C13.8798 11.8667 14.1032 11.5616 14.3007 11.2412L14.0186 11.0881ZM14.573 10.0143C14.4337 10.3497 14.267 10.674 14.0744 10.9843L14.3891 11.1364C14.5814 10.8112 14.7469 10.4722 14.8841 10.1225L14.573 10.0143ZM14.87 8.90577C14.8034 9.2506 14.7076 9.58969 14.5836 9.91971L14.8947 10.0346C15.0254 9.68481 15.126 9.32535 15.1953 8.95985L14.87 8.90577ZM14.9867 7.73298C14.9837 8.0852 14.9518 8.43666 14.8912 8.7841L15.2165 8.83818C15.2812 8.47295 15.3155 8.10339 15.319 7.73298H14.9867ZM13.3142 3.29868L13.5688 3.0959C13.317 2.81356 13.0428 2.55028 12.7485 2.3084L12.5328 2.55175C12.8141 2.78004 13.0754 3.02984 13.3142 3.29868ZM3.40697 2.55175L3.19483 2.3084C2.89941 2.55023 2.62398 2.81351 2.37099 3.0959L2.62557 3.29868C2.86627 3.0315 3.12745 2.78183 3.40697 2.55175ZM2.62557 12.0219L2.37099 12.2281C2.62402 12.5094 2.89946 12.7716 3.19483 13.0122L3.40697 12.7689C3.12572 12.5406 2.8644 12.2908 2.62557 12.0219ZM12.5328 12.7689L12.7485 13.0122C13.0428 12.7715 13.317 12.5094 13.5688 12.2281L13.3142 12.0219C13.0773 12.2924 12.8158 12.5423 12.5328 12.7689Z" fill="#231F20"/>
</g>
<defs>
<clipPath id="clip0_140_651">
<rect width="16" height="16" fill="white"/>
</clipPath>
</defs>
</svg>
