<svg width="390" height="368" viewBox="0 0 390 368" fill="none" xmlns="http://www.w3.org/2000/svg">
<path d="M158.653 461.29C31.4761 461.29 -72 357.831 -72 230.653C-72 103.476 31.4761 0 158.653 0C285.831 0 389.29 103.476 389.29 230.653C389.29 357.831 285.831 461.29 158.653 461.29ZM158.653 16.5165C101.881 16.5821 47.4524 39.1639 7.30814 79.3081C-32.8361 119.452 -55.4179 173.881 -55.4835 230.653C-55.4835 348.713 40.5767 444.774 158.653 444.774C276.73 444.774 372.774 348.713 372.774 230.653C372.774 112.593 276.713 16.5165 158.653 16.5165Z" fill="white" fill-opacity="0.15"/>
<path d="M158.653 426.176C119.978 426.179 82.1702 414.713 50.0114 393.228C17.8527 371.744 -7.21263 341.205 -22.0146 305.474C-36.8165 269.743 -40.6902 230.425 -33.1458 192.493C-25.6014 154.561 -6.97782 119.717 20.3698 92.3697C47.7174 65.0221 82.5607 46.3985 120.493 38.8541C158.426 31.3097 197.743 35.1834 233.474 49.9854C269.205 64.7873 299.744 89.8526 321.229 122.011C342.713 154.17 354.179 191.978 354.176 230.653C354.115 282.49 333.495 332.187 296.841 368.841C260.187 405.495 210.49 426.115 158.653 426.176ZM158.653 51.6307C123.245 51.6275 88.6315 62.1242 59.1892 81.7934C29.7469 101.463 6.79861 129.421 -6.75372 162.133C-20.306 194.845 -23.8536 230.841 -16.9479 265.569C-10.0421 300.297 7.00682 332.197 32.0429 357.236C57.079 382.274 88.9778 399.326 123.705 406.235C158.433 413.144 194.429 409.6 227.142 396.05C259.855 382.501 287.816 359.555 307.488 330.115C327.16 300.674 337.659 266.061 337.659 230.653C337.607 183.193 318.731 137.69 285.173 104.129C251.615 70.5676 206.114 51.6876 158.653 51.6307Z" fill="white" fill-opacity="0.15"/>
<path d="M158.653 391.062C126.922 391.065 95.9036 381.659 69.5193 364.032C43.135 346.406 22.5704 321.351 10.4262 292.036C-1.71807 262.722 -4.89642 230.464 1.29309 199.343C7.4826 168.223 22.7619 139.636 45.1988 117.199C67.6356 94.7624 96.2221 79.4831 127.343 73.2935C158.464 67.104 190.721 70.2824 220.036 82.4266C249.35 94.5709 274.405 115.135 292.032 141.52C309.658 167.904 319.065 198.923 319.061 230.653C319.013 273.182 302.098 313.954 272.026 344.026C241.954 374.098 201.181 391.014 158.653 391.062ZM158.653 86.7449C130.19 86.7416 102.365 95.1789 78.6971 110.99C55.0293 126.801 36.5816 149.275 25.687 175.57C14.7924 201.866 11.9402 230.802 17.4911 258.718C23.0419 286.635 36.7466 312.278 56.8719 332.406C76.9972 352.534 102.639 366.241 130.555 371.795C158.471 377.349 187.407 374.501 213.704 363.609C240.001 352.717 262.477 334.272 278.291 310.606C294.104 286.94 302.545 259.116 302.545 230.653C302.501 192.503 287.328 155.927 260.353 128.949C233.378 101.971 196.803 86.793 158.653 86.7449Z" fill="white" fill-opacity="0.15"/>
<path d="M158.653 355.948C133.867 355.951 109.637 348.604 89.0273 334.836C68.4175 321.068 52.3535 301.497 42.867 278.599C33.3805 255.701 30.8975 230.503 35.7321 206.194C40.5668 181.884 52.5018 159.555 70.0278 142.029C87.5538 124.503 109.884 112.568 134.193 107.733C158.503 102.898 183.7 105.381 206.598 114.868C229.496 124.354 249.067 140.418 262.835 161.028C276.603 181.638 283.95 205.868 283.947 230.653C283.907 263.871 270.694 295.718 247.206 319.206C223.717 342.695 191.871 355.908 158.653 355.948ZM158.653 121.859C137.134 121.856 116.098 128.234 98.2051 140.186C80.3118 152.139 66.3648 169.129 58.1278 189.008C49.8909 208.887 47.7341 230.763 51.9301 251.868C56.126 272.973 66.4864 292.36 81.7009 307.577C96.9154 322.794 116.301 333.157 137.405 337.356C158.51 341.555 180.385 339.402 200.266 331.168C220.146 322.934 237.139 308.989 249.094 291.098C261.049 273.206 267.43 252.172 267.43 230.653C267.395 201.813 255.924 174.163 235.532 153.769C215.141 133.374 187.493 121.898 158.653 121.859Z" fill="white" fill-opacity="0.15"/>
<path d="M158.654 320.833C140.813 320.837 123.372 315.549 108.537 305.639C93.7016 295.73 82.1383 281.643 75.3095 265.161C68.4807 248.679 66.693 230.542 70.1728 213.044C73.6525 195.546 82.2432 179.473 94.8585 166.858C107.474 154.243 123.547 145.652 141.045 142.172C158.543 138.693 176.68 140.48 193.162 147.309C209.644 154.138 223.73 165.701 233.64 180.536C243.55 195.372 248.837 212.813 248.834 230.653C248.803 254.561 239.292 277.481 222.387 294.386C205.482 311.292 182.562 320.803 158.654 320.833ZM158.654 156.973C144.08 156.97 129.834 161.288 117.715 169.382C105.596 177.476 96.1495 188.983 90.5703 202.446C84.9911 215.909 83.5296 230.724 86.3707 245.017C89.2118 259.311 96.2279 272.441 106.532 282.747C116.835 293.053 129.964 300.072 144.257 302.916C158.55 305.761 173.365 304.303 186.83 298.726C200.294 293.15 211.802 283.706 219.899 271.589C227.996 259.472 232.317 245.227 232.317 230.653C232.296 211.122 224.528 192.396 210.719 178.583C196.909 164.771 178.185 156.999 158.654 156.973Z" fill="white" fill-opacity="0.15"/>
<path d="M158.653 285.719C147.758 285.723 137.106 282.495 128.045 276.443C118.984 270.392 111.921 261.789 107.75 251.724C103.579 241.658 102.487 230.581 104.612 219.895C106.737 209.208 111.983 199.392 119.688 191.688C127.392 183.983 137.208 178.737 147.895 176.612C158.581 174.487 169.658 175.579 179.724 179.75C189.789 183.921 198.392 190.984 204.443 200.045C210.495 209.106 213.723 219.758 213.719 230.653C213.702 245.252 207.895 259.249 197.572 269.572C187.249 279.895 173.252 285.702 158.653 285.719ZM158.653 192.087C151.025 192.084 143.567 194.343 137.223 198.579C130.878 202.815 125.933 208.837 123.011 215.883C120.09 222.93 119.324 230.685 120.81 238.167C122.296 245.649 125.968 252.523 131.361 257.918C136.754 263.313 143.625 266.988 151.107 268.477C158.588 269.967 166.344 269.204 173.392 266.285C180.44 263.367 186.464 258.424 190.702 252.081C194.941 245.739 197.203 238.282 197.203 230.653C197.194 220.431 193.13 210.629 185.903 203.398C178.676 196.168 168.876 192.1 158.653 192.087Z" fill="white" fill-opacity="0.15"/>
<path d="M158.653 250.605C154.702 250.609 150.839 249.44 147.553 247.247C144.267 245.054 141.705 241.935 140.191 238.286C138.678 234.637 138.281 230.62 139.051 226.745C139.821 222.87 141.723 219.311 144.517 216.517C147.31 213.723 150.87 211.821 154.745 211.051C158.62 210.281 162.636 210.678 166.286 212.192C169.935 213.705 173.054 216.267 175.247 219.553C177.439 222.84 178.608 226.703 178.605 230.653C178.596 235.942 176.491 241.012 172.752 244.752C169.012 248.492 163.942 250.597 158.653 250.605ZM158.653 227.201C157.97 227.198 157.301 227.398 156.731 227.775C156.161 228.152 155.716 228.69 155.452 229.321C155.188 229.951 155.118 230.646 155.249 231.317C155.38 231.987 155.708 232.604 156.19 233.088C156.672 233.573 157.287 233.903 157.957 234.038C158.627 234.172 159.322 234.105 159.954 233.844C160.585 233.583 161.125 233.141 161.505 232.573C161.886 232.005 162.088 231.337 162.088 230.653C162.084 229.742 161.721 228.869 161.078 228.223C160.436 227.577 159.564 227.21 158.653 227.201Z" fill="white" fill-opacity="0.15"/>
</svg>
