<svg width="1440" height="261" viewBox="0 0 1440 261" fill="none" xmlns="http://www.w3.org/2000/svg">
<path d="M252 261C252 191.778 224.502 125.392 175.555 76.4451C126.608 27.4981 60.2215 0 -9 0L-9 261H252Z" fill="#00B1FF"/>
<path d="M505 261C505 199.47 480.557 140.46 437.049 96.9512C393.54 53.4428 334.53 29 273 29V261H505Z" fill="#FDB913"/>
<path d="M999 261C998.996 199.471 974.552 140.464 931.044 96.956C887.537 53.4485 828.529 29.0043 767 29V261H999Z" fill="#002D72"/>
<path d="M1023 261C1053.47 261.002 1083.64 255.003 1111.79 243.344C1139.93 231.686 1165.51 214.597 1187.05 193.054C1208.6 171.51 1225.69 145.934 1237.34 117.785C1249 89.6366 1255 59.4673 1255 29L1023 29V261Z" fill="#F43482"/>
<path d="M1485 261C1454.8 261.002 1424.89 255.003 1396.98 243.344C1369.07 231.686 1343.72 214.597 1322.36 193.054C1301 171.51 1284.06 145.934 1272.5 117.785C1260.95 89.6366 1255 59.4673 1255 29L1485 29V261Z" fill="#374EA2"/>
<path d="M526 259.428C526 259.428 668.173 269.364 707.504 206.435C746.834 143.507 741.79 71 741.79 71L526 71V259.428Z" fill="#50B848"/>
</svg>
