<svg width="112" height="639" viewBox="0 0 112 639" fill="none" xmlns="http://www.w3.org/2000/svg">
<path d="M112 111C82.2958 111 53.8081 99.3054 32.804 78.4889C11.8 57.6723 1.28682e-06 29.439 0 0L112 -4.89568e-06L112 111Z" fill="#00B1FF"/>
<path d="M112 220C85.4783 220 60.043 209.464 41.2893 190.711C22.5357 171.957 12 146.522 12 120L112 120L112 220Z" fill="#FDB913"/>
<path d="M112 431C85.4789 430.998 60.0446 420.567 41.2914 402.002C22.5382 383.436 12.0019 358.256 12 332L112 332L112 431Z" fill="#002D72"/>
<path d="M112 441C112.001 454.132 109.415 467.136 104.39 479.269C99.3647 491.402 91.9988 502.427 82.7127 511.713C73.4267 520.999 62.4024 528.365 50.2694 533.39C38.1365 538.415 25.1325 541.001 12 541L12 441L112 441Z" fill="#F43482"/>
<path d="M111 639C111.001 626.13 108.441 613.386 103.466 601.496C98.4911 589.606 91.1988 578.802 82.0056 569.701C72.8124 560.601 61.8984 553.383 49.8867 548.458C37.8751 543.533 25.0011 540.999 12 541L12 639L111 639Z" fill="#374EA2"/>
<path d="M110.755 229C110.755 229 115.013 289.555 88.0438 306.307C61.0745 323.059 30 320.91 30 320.91L30 229L110.755 229Z" fill="#50B848"/>
</svg>
