<svg width="266" height="537" viewBox="0 0 266 537" fill="none" xmlns="http://www.w3.org/2000/svg">
<path d="M17.1896 0H0.62207V20.5468H17.1896V0Z" fill="#FDB913"/>
<path d="M50.3244 0H33.7568V20.5468H50.3244V0Z" fill="#FDB913"/>
<path d="M83.4592 0H66.8916V20.5468H83.4592V0Z" fill="#FDB913"/>
<path d="M116.612 0H100.044V20.5468H116.612V0Z" fill="#FDB913"/>
<path d="M149.746 0H133.179V20.5468H149.746V0Z" fill="#FDB913"/>
<path d="M182.896 0H166.328V20.5468H182.896V0Z" fill="#FDB913"/>
<path d="M216.031 0H199.464V20.5468H216.031V0Z" fill="#FDB913"/>
<path d="M249.183 0H232.615V20.5468H249.183V0Z" fill="#FDB913"/>
<path d="M33.757 34.4502H17.1895V54.9972H33.757V34.4502Z" fill="#FDB913"/>
<path d="M66.8919 34.4502H50.3242V54.9972H66.8919V34.4502Z" fill="#FDB913"/>
<path d="M100.044 34.4502H83.4766V54.9972H100.044V34.4502Z" fill="#FDB913"/>
<path d="M133.179 34.4502H116.611V54.9972H133.179V34.4502Z" fill="#FDB913"/>
<path d="M166.314 34.4502H149.746V54.9972H166.314V34.4502Z" fill="#FDB913"/>
<path d="M199.464 34.4502H182.896V54.9972H199.464V34.4502Z" fill="#FDB913"/>
<path d="M232.6 34.4502H216.032V54.9972H232.6V34.4502Z" fill="#FDB913"/>
<path d="M265.75 34.4502H249.183V54.9972H265.75V34.4502Z" fill="#FDB913"/>
<path d="M17.1896 68.9011H0.62207V89.4478H17.1896V68.9011Z" fill="#FDB913"/>
<path d="M50.3244 68.9011H33.7568V89.4478H50.3244V68.9011Z" fill="#FDB913"/>
<path d="M83.4592 68.9011H66.8916V89.4478H83.4592V68.9011Z" fill="#FDB913"/>
<path d="M116.612 68.9011H100.044V89.4478H116.612V68.9011Z" fill="#FDB913"/>
<path d="M149.746 68.9011H133.179V89.4478H149.746V68.9011Z" fill="#FDB913"/>
<path d="M182.896 68.9011H166.328V89.4478H182.896V68.9011Z" fill="#FDB913"/>
<path d="M216.031 68.9011H199.464V89.4478H216.031V68.9011Z" fill="#FDB913"/>
<path d="M249.183 68.9011H232.615V89.4478H249.183V68.9011Z" fill="#FDB913"/>
<path d="M33.757 103.35H17.1895V123.897H33.757V103.35Z" fill="#FDB913"/>
<path d="M66.8919 103.35H50.3242V123.897H66.8919V103.35Z" fill="#FDB913"/>
<path d="M100.044 103.35H83.4766V123.897H100.044V103.35Z" fill="#FDB913"/>
<path d="M133.179 103.35H116.611V123.897H133.179V103.35Z" fill="#FDB913"/>
<path d="M166.314 103.35H149.746V123.897H166.314V103.35Z" fill="#FDB913"/>
<path d="M199.464 103.35H182.896V123.897H199.464V103.35Z" fill="#FDB913"/>
<path d="M232.6 103.35H216.032V123.897H232.6V103.35Z" fill="#FDB913"/>
<path d="M265.75 103.35H249.183V123.897H265.75V103.35Z" fill="#FDB913"/>
<path d="M17.1896 137.801H0.62207V158.348H17.1896V137.801Z" fill="#FDB913"/>
<path d="M50.3244 137.801H33.7568V158.348H50.3244V137.801Z" fill="#FDB913"/>
<path d="M83.4592 137.801H66.8916V158.348H83.4592V137.801Z" fill="#FDB913"/>
<path d="M116.612 137.801H100.044V158.348H116.612V137.801Z" fill="#FDB913"/>
<path d="M149.746 137.801H133.179V158.348H149.746V137.801Z" fill="#FDB913"/>
<path d="M182.896 137.801H166.328V158.348H182.896V137.801Z" fill="#FDB913"/>
<path d="M216.031 137.801H199.464V158.348H216.031V137.801Z" fill="#FDB913"/>
<path d="M249.183 137.801H232.615V158.348H249.183V137.801Z" fill="#FDB913"/>
<path d="M33.757 172.251H17.1895V192.798H33.757V172.251Z" fill="#FDB913"/>
<path d="M66.8919 172.251H50.3242V192.798H66.8919V172.251Z" fill="#FDB913"/>
<path d="M100.044 172.251H83.4766V192.798H100.044V172.251Z" fill="#FDB913"/>
<path d="M133.179 172.251H116.611V192.798H133.179V172.251Z" fill="#FDB913"/>
<path d="M166.314 172.251H149.746V192.798H166.314V172.251Z" fill="#FDB913"/>
<path d="M199.464 172.251H182.896V192.798H199.464V172.251Z" fill="#FDB913"/>
<path d="M232.6 172.251H216.032V192.798H232.6V172.251Z" fill="#FDB913"/>
<path d="M265.75 172.251H249.183V192.798H265.75V172.251Z" fill="#FDB913"/>
<path d="M17.1896 206.701H0.62207V227.248H17.1896V206.701Z" fill="#FDB913"/>
<path d="M50.3244 206.701H33.7568V227.248H50.3244V206.701Z" fill="#FDB913"/>
<path d="M83.4592 206.701H66.8916V227.248H83.4592V206.701Z" fill="#FDB913"/>
<path d="M116.612 206.701H100.044V227.248H116.612V206.701Z" fill="#FDB913"/>
<path d="M149.746 206.701H133.179V227.248H149.746V206.701Z" fill="#FDB913"/>
<path d="M182.896 206.701H166.328V227.248H182.896V206.701Z" fill="#FDB913"/>
<path d="M216.031 206.701H199.464V227.248H216.031V206.701Z" fill="#FDB913"/>
<path d="M249.183 206.701H232.615V227.248H249.183V206.701Z" fill="#FDB913"/>
<path d="M33.757 241.132H17.1895V261.679H33.757V241.132Z" fill="#FDB913"/>
<path d="M66.8919 241.132H50.3242V261.679H66.8919V241.132Z" fill="#FDB913"/>
<path d="M100.044 241.132H83.4766V261.679H100.044V241.132Z" fill="#FDB913"/>
<path d="M133.179 241.132H116.611V261.679H133.179V241.132Z" fill="#FDB913"/>
<path d="M166.314 241.132H149.746V261.679H166.314V241.132Z" fill="#FDB913"/>
<path d="M199.464 241.132H182.896V261.679H199.464V241.132Z" fill="#FDB913"/>
<path d="M232.6 241.132H216.032V261.679H232.6V241.132Z" fill="#FDB913"/>
<path d="M265.75 241.132H249.183V261.679H265.75V241.132Z" fill="#FDB913"/>
<path d="M17.1896 275.321H0.62207V295.868H17.1896V275.321Z" fill="#FDB913"/>
<path d="M50.3244 275.321H33.7568V295.868H50.3244V275.321Z" fill="#FDB913"/>
<path d="M83.4592 275.321H66.8916V295.868H83.4592V275.321Z" fill="#FDB913"/>
<path d="M116.612 275.321H100.044V295.868H116.612V275.321Z" fill="#FDB913"/>
<path d="M149.746 275.321H133.179V295.868H149.746V275.321Z" fill="#FDB913"/>
<path d="M182.896 275.321H166.328V295.868H182.896V275.321Z" fill="#FDB913"/>
<path d="M216.031 275.321H199.464V295.868H216.031V275.321Z" fill="#FDB913"/>
<path d="M249.183 275.321H232.615V295.868H249.183V275.321Z" fill="#FDB913"/>
<path d="M33.757 309.771H17.1895V330.318H33.757V309.771Z" fill="#FDB913"/>
<path d="M66.8919 309.771H50.3242V330.318H66.8919V309.771Z" fill="#FDB913"/>
<path d="M100.044 309.771H83.4766V330.318H100.044V309.771Z" fill="#FDB913"/>
<path d="M133.179 309.771H116.611V330.318H133.179V309.771Z" fill="#FDB913"/>
<path d="M166.314 309.771H149.746V330.318H166.314V309.771Z" fill="#FDB913"/>
<path d="M199.464 309.771H182.896V330.318H199.464V309.771Z" fill="#FDB913"/>
<path d="M232.6 309.771H216.032V330.318H232.6V309.771Z" fill="#FDB913"/>
<path d="M265.75 309.771H249.183V330.318H265.75V309.771Z" fill="#FDB913"/>
<path d="M17.1896 344.222H0.62207V364.769H17.1896V344.222Z" fill="#FDB913"/>
<path d="M50.3244 344.222H33.7568V364.769H50.3244V344.222Z" fill="#FDB913"/>
<path d="M83.4592 344.222H66.8916V364.769H83.4592V344.222Z" fill="#FDB913"/>
<path d="M116.612 344.222H100.044V364.769H116.612V344.222Z" fill="#FDB913"/>
<path d="M149.746 344.222H133.179V364.769H149.746V344.222Z" fill="#FDB913"/>
<path d="M182.896 344.222H166.328V364.769H182.896V344.222Z" fill="#FDB913"/>
<path d="M216.031 344.222H199.464V364.769H216.031V344.222Z" fill="#FDB913"/>
<path d="M249.183 344.222H232.615V364.769H249.183V344.222Z" fill="#FDB913"/>
<path d="M33.757 378.672H17.1895V399.219H33.757V378.672Z" fill="#FDB913"/>
<path d="M66.8919 378.672H50.3242V399.219H66.8919V378.672Z" fill="#FDB913"/>
<path d="M100.044 378.672H83.4766V399.219H100.044V378.672Z" fill="#FDB913"/>
<path d="M133.179 378.672H116.611V399.219H133.179V378.672Z" fill="#FDB913"/>
<path d="M166.314 378.672H149.746V399.219H166.314V378.672Z" fill="#FDB913"/>
<path d="M199.464 378.672H182.896V399.219H199.464V378.672Z" fill="#FDB913"/>
<path d="M232.6 378.672H216.032V399.219H232.6V378.672Z" fill="#FDB913"/>
<path d="M265.75 378.672H249.183V399.219H265.75V378.672Z" fill="#FDB913"/>
<path d="M17.1896 413.122H0.62207V433.669H17.1896V413.122Z" fill="#FDB913"/>
<path d="M50.3244 413.122H33.7568V433.669H50.3244V413.122Z" fill="#FDB913"/>
<path d="M83.4592 413.122H66.8916V433.669H83.4592V413.122Z" fill="#FDB913"/>
<path d="M116.612 413.122H100.044V433.669H116.612V413.122Z" fill="#FDB913"/>
<path d="M149.746 413.122H133.179V433.669H149.746V413.122Z" fill="#FDB913"/>
<path d="M182.896 413.122H166.328V433.669H182.896V413.122Z" fill="#FDB913"/>
<path d="M216.031 413.122H199.464V433.669H216.031V413.122Z" fill="#FDB913"/>
<path d="M249.183 413.122H232.615V433.669H249.183V413.122Z" fill="#FDB913"/>
<path d="M33.757 447.573H17.1895V468.12H33.757V447.573Z" fill="#FDB913"/>
<path d="M66.8919 447.573H50.3242V468.12H66.8919V447.573Z" fill="#FDB913"/>
<path d="M100.044 447.573H83.4766V468.12H100.044V447.573Z" fill="#FDB913"/>
<path d="M133.179 447.573H116.611V468.12H133.179V447.573Z" fill="#FDB913"/>
<path d="M166.314 447.573H149.746V468.12H166.314V447.573Z" fill="#FDB913"/>
<path d="M199.464 447.573H182.896V468.12H199.464V447.573Z" fill="#FDB913"/>
<path d="M232.6 447.573H216.032V468.12H232.6V447.573Z" fill="#FDB913"/>
<path d="M265.75 447.573H249.183V468.12H265.75V447.573Z" fill="#FDB913"/>
<path d="M17.1896 482.022H0.62207V502.569H17.1896V482.022Z" fill="#FDB913"/>
<path d="M50.3244 482.022H33.7568V502.569H50.3244V482.022Z" fill="#FDB913"/>
<path d="M83.4592 482.022H66.8916V502.569H83.4592V482.022Z" fill="#FDB913"/>
<path d="M116.612 482.022H100.044V502.569H116.612V482.022Z" fill="#FDB913"/>
<path d="M149.746 482.022H133.179V502.569H149.746V482.022Z" fill="#FDB913"/>
<path d="M182.896 482.022H166.328V502.569H182.896V482.022Z" fill="#FDB913"/>
<path d="M216.031 482.022H199.464V502.569H216.031V482.022Z" fill="#FDB913"/>
<path d="M249.183 482.022H232.615V502.569H249.183V482.022Z" fill="#FDB913"/>
<path d="M33.757 516.453H17.1895V537H33.757V516.453Z" fill="#FDB913"/>
<path d="M66.8919 516.453H50.3242V537H66.8919V516.453Z" fill="#FDB913"/>
<path d="M100.044 516.453H83.4766V537H100.044V516.453Z" fill="#FDB913"/>
<path d="M133.179 516.453H116.611V537H133.179V516.453Z" fill="#FDB913"/>
<path d="M166.314 516.453H149.746V537H166.314V516.453Z" fill="#FDB913"/>
<path d="M199.464 516.453H182.896V537H199.464V516.453Z" fill="#FDB913"/>
<path d="M232.6 516.453H216.032V537H232.6V516.453Z" fill="#FDB913"/>
<path d="M265.75 516.453H249.183V537H265.75V516.453Z" fill="#FDB913"/>
</svg>
