<svg width="268" height="398" viewBox="0 0 268 398" fill="none" xmlns="http://www.w3.org/2000/svg">
<path d="M-95 397.317C-71.1886 397.319 -47.6101 392.63 -25.611 383.519C-3.61181 374.407 16.3772 361.052 33.2143 344.214C50.0515 327.377 63.4072 307.388 72.5186 285.389C81.6301 263.39 86.3188 239.811 86.3171 216L-95 216L-95 397.317Z" fill="#F43482"/>
<path d="M267.638 397.317C243.826 397.319 220.248 392.63 198.249 383.519C176.249 374.407 156.261 361.052 139.423 344.215C122.586 327.377 109.23 307.388 100.119 285.389C91.0076 263.39 86.3188 239.812 86.3205 216H267.638V397.317Z" fill="#FDB913"/>
<path d="M249.596 204.596C249.596 150.334 228.04 98.294 189.671 59.9248C151.302 21.5556 99.2623 0 45 0L45 204.596H249.596Z" fill="#00B1FF"/>
</svg>
