<svg width="363" height="398" viewBox="0 0 363 398" fill="none" xmlns="http://www.w3.org/2000/svg">
<path d="M0 397.317C23.8114 397.319 47.3899 392.63 69.389 383.519C91.3882 374.407 111.377 361.052 128.214 344.214C145.052 327.377 158.407 307.388 167.519 285.389C176.63 263.39 181.319 239.811 181.317 216L0 216L0 397.317Z" fill="#F43482"/>
<path d="M362.638 397.317C338.826 397.319 315.248 392.63 293.249 383.519C271.249 374.407 251.261 361.052 234.423 344.215C217.586 327.377 204.23 307.388 195.119 285.389C186.008 263.39 181.319 239.812 181.321 216H362.638V397.317Z" fill="#FDB913"/>
<path d="M344.596 204.596C344.596 150.334 323.04 98.294 284.671 59.9248C246.302 21.5556 194.262 0 140 0V204.596H344.596Z" fill="#00B1FF"/>
</svg>
