<svg width="603" height="116" viewBox="0 0 603 116" fill="none" xmlns="http://www.w3.org/2000/svg">
<path d="M593.314 100.502C591.099 100.191 588.919 99.723 586.794 99.1018C585.833 98.7302 582.548 96.2099 582.008 95.9083C581.468 95.6067 580.413 94.0827 580.413 94.0827C580.413 94.0827 579.207 93.4418 578.811 93.2856C578.415 93.1294 577.153 93.3718 576.82 93.2856C576.487 93.1994 575.752 91.3469 575.752 91.3469C575.752 91.3469 575.978 89.3974 575.752 89.0689C575.526 88.7404 573.491 88.0402 573.095 87.9271C572.699 87.8141 572.963 86.6724 572.963 86.6724L574.025 85.186C574.025 85.186 574.27 83.8396 574.025 83.5704C573.78 83.3011 567.907 79.9191 567.907 79.9191V77.6411C567.967 77.1038 567.967 76.5627 567.907 76.0255C567.794 75.5462 566.142 74.8084 565.777 74.5445C565.413 74.2806 564.578 74.5445 564.578 74.5445C564.578 74.5445 564.772 72.5303 564.578 72.148C564.383 71.7656 562.693 71.1248 562.693 71.1248C562.693 71.1248 563.899 69.9992 563.755 69.6007C563.61 69.2022 560.752 67.1665 560.419 67.0534C560.087 66.9403 559.703 67.3281 559.703 67.3281C559.379 67.126 559.037 66.9459 558.68 66.7895C558.447 66.7303 557.989 66.9457 557.989 66.9457L556.858 67.2257L555.909 66.8811V66.0679L555.281 65.2278C555.281 65.2278 555.011 65.1524 554.553 64.9746C554.398 64.9358 554.233 64.936 554.078 64.9751C553.924 65.0143 553.785 65.0908 553.68 65.1955L552.913 65.287C552.913 65.287 553.114 64.8292 552.951 64.63C552.788 64.4307 552.323 64.5061 552.323 64.5061L551.814 63.6929L551.186 63.2567L551.877 62.7182L551.544 61.8727L549.798 61.6249C549.347 61.3066 548.873 61.0134 548.378 60.7471C548.096 60.6556 547.467 61.0918 547.467 61.0918L546.155 60.6879L545.426 60.0955L544.478 59.907L544.735 59.3685C544.735 59.3685 545.363 59.2338 545.319 58.9969C545.275 58.7599 544.515 58.3075 544.515 58.3075L543.353 57.6828L542.223 57.3382C542.223 57.3382 542.336 57.0474 542.367 56.9343C542.398 56.8212 543.228 57.2466 543.278 56.9935C543.328 56.7404 542.832 56.4065 542.694 56.218C542.059 55.8683 541.388 55.5691 540.69 55.324L540.948 54.9363L540.728 54.247L539.779 54.0316L538.837 53.7784L538.762 53.0299L537.958 52.6529L537.229 52.7821L536.249 52.9976C536.249 52.9976 534.936 51.6889 534.754 51.7158C534.572 51.7428 534.428 50.8757 534.428 50.8757L533.95 50.4395L532.493 49.3624L532.681 48.4846L531.953 47.9461L531.256 47.693L529.371 47.3806C529.428 47.3003 529.462 47.2092 529.468 47.1153C529.475 47.0215 529.454 46.9277 529.409 46.8421C529.258 46.5836 528.781 46.589 528.781 46.589L527.688 46.185L527.324 45.4042L526.695 44.8656L525.094 44.3971L524.585 43.5193L524.038 42.7707L524.296 42.0545C524.337 41.7847 524.36 41.5132 524.365 41.2413C524.365 40.9935 522.87 39.9272 522.87 39.9272L522.179 39.868V39.1948L521.815 38.3816L520.942 37.8431L519.302 37.3046L518.536 36.4914L517.374 35.9528L516.532 35.8936L515.772 36.0767L515.188 36.6152C515.169 36.6409 515.144 36.6625 515.114 36.6785C515.084 36.6945 515.05 36.7044 515.015 36.7075C514.98 36.7107 514.945 36.7069 514.911 36.6965C514.878 36.6861 514.848 36.6693 514.824 36.6475C514.591 36.4967 514.403 35.7051 514.315 35.4304C514.227 35.1558 514.566 34.9619 514.566 34.9619L513.875 34.0518C513.844 33.8108 513.796 33.5716 513.731 33.3355C513.668 33.1901 514.196 32.797 514.133 32.5223C514.07 32.2477 513.505 32.113 513.404 31.9299L513.065 31.1975L512.883 30.659L511.457 30.3143L511.495 29.4042L511.457 28.6556L511.168 27.6916L511.608 27.5032L511.388 26.3453L510.333 25.6883L507.192 24.692L506.269 24.455L504.849 23.8626L503.719 23.7388L502.883 23.1733L502.01 22.4247L501.935 21.3477C501.935 21.3477 501.539 20.3729 501.495 20.1898C501.451 20.0067 501.79 19.7213 501.79 19.7213C501.79 19.7213 502.318 19.1827 502.224 18.9727C502.129 18.7627 501.966 18.3857 501.859 18.1595C501.511 17.7579 501.122 17.3831 500.697 17.0394L501.137 16.3823C501.284 16.2536 501.385 16.0908 501.426 15.9138C501.361 15.6164 501.238 15.3306 501.062 15.0683L500.434 14.6644L499.127 14.1959C498.806 13.9867 498.463 13.8029 498.103 13.6466C497.145 13.5986 496.183 13.6094 495.226 13.6789L494.24 13.4904L493.932 12.8064V11.8101L493.442 11.137L493.48 9.18746L493.769 9.09591V8.08885L493.951 7.90036L493.989 4.21675L494.391 4.00134L496.357 3.93671L496.935 3.34432L497.123 3.06428L497.883 3.12352C497.695 3.12352 498.423 3.07505 498.65 2.96735C498.876 2.85964 498.65 2.59037 498.65 2.59037C498.448 2.5023 498.238 2.43019 498.021 2.37495C497.739 2.38784 497.457 2.41844 497.18 2.46651L495.396 2.40727L494.14 2.12723L492.883 1.65331H492.99C493.038 1.33331 493.038 1.00933 492.99 0.689329C492.896 0.49007 492.626 0 492.324 0C492.023 0 491.847 0.290811 491.696 0.500841C491.586 0.87808 491.525 1.26458 491.514 1.65331H491.69L490.164 2.12723L488.524 2.2834H487.4L486.772 1.97105C486.772 1.97105 485.974 2.15415 485.899 2.2834C485.856 2.39354 485.856 2.51254 485.899 2.62268L486.527 2.90272H487.727L488.355 3.74823H488.983L490.44 3.96903L490.585 6.37091L490.88 7.50184L490.842 11.1424L490.214 11.9071V12.8118H489.944C489.944 12.8118 489.517 12.8603 489.397 13.0272C489.335 13.2321 489.335 13.4471 489.397 13.6519H488.889L488.085 13.8404L487.211 13.5604C487.004 13.6331 486.808 13.7271 486.627 13.8404C486.414 13.9912 486.338 14.589 486.338 14.589L485.936 15.343L484.68 16.2477L484.316 16.6839L483.405 16.9047L482.896 17.3086V17.901L482.601 18.0895L481.973 18.2457C481.887 18.4212 481.814 18.6011 481.753 18.7842C481.715 18.9404 482.224 19.1558 482.224 19.1558L482.186 19.7482C482.028 19.8261 481.882 19.9221 481.753 20.0336C481.615 20.1683 481.753 20.4375 481.753 20.4375L481.389 20.8091L481.094 21.1215L480.365 20.8414L479.567 20.8737L478.939 21.4661C478.553 21.5157 478.174 21.6005 477.808 21.7193C477.476 21.9845 477.169 22.2727 476.891 22.5809C476.627 22.4556 476.344 22.3615 476.05 22.3009C475.824 22.3009 475.422 22.4463 475.359 22.5809L475.07 23.3618L474.705 24.078C474.552 24.1996 474.417 24.3371 474.303 24.4873C474.25 24.6401 474.25 24.8031 474.303 24.9559L473.537 25.1713C473.369 25.2859 473.243 25.439 473.173 25.6129C473.123 25.913 473.123 26.2175 473.173 26.5176L472.777 27.0185V27.6109L471.935 27.1746C471.814 27.2328 471.714 27.3186 471.647 27.4224L471.351 27.8586C471.051 27.9446 470.769 28.0719 470.516 28.2356C470.478 28.298 470.459 28.3673 470.459 28.4375C470.459 28.5078 470.478 28.577 470.516 28.6395C470.211 28.6791 469.915 28.7628 469.643 28.8872C469.525 29.029 469.438 29.1877 469.385 29.3557V30.659C469.385 30.659 468.437 30.7021 468.33 30.8475C468.223 30.9929 468.55 31.4399 468.55 31.4399L467.708 32.1884C467.708 32.1884 466.992 32.727 466.797 32.8455C466.603 32.9639 466.1 33.2763 466.169 33.4378C466.238 33.5994 466.716 33.6263 466.716 33.6263L466.314 34.0625L466.169 34.5042C466.073 34.8013 466 35.1035 465.949 35.4089C465.949 35.6028 466.276 35.7805 466.276 35.7805V36.4698L465.949 36.8145L465.403 37.6223L464.894 37.7785C464.686 37.7523 464.474 37.7523 464.266 37.7785C464.155 37.8216 464.058 37.8865 463.981 37.9679C463.905 38.0493 463.852 38.1449 463.826 38.247V39.0602C463.826 39.0602 463.022 39.2164 463.022 39.3402V40.7781L462.733 41.2143L462.589 41.7529C462.589 41.7529 462.218 42.0598 462.225 42.2214C462.237 42.4187 462.237 42.6165 462.225 42.8138C462.19 43.021 462.19 43.2313 462.225 43.4385C462.275 43.6647 462.589 43.7509 462.589 43.7509L462.225 44.4079L461.898 45.2211L461.64 46.2174V47.833C461.544 48.0439 461.47 48.262 461.421 48.4846C461.444 48.8526 461.53 49.2156 461.678 49.5617L461.421 50.8111L461.276 51.6889L461.094 54.8124C461.094 54.8124 460.717 55.5071 460.623 55.6202C460.529 55.7333 460.623 56.1588 460.623 56.1588C460.623 56.1588 460.227 56.1965 460.146 56.315C460.107 56.5418 460.107 56.7721 460.146 56.9989C459.923 57.1273 459.726 57.2855 459.561 57.4674C459.452 57.8192 459.391 58.1807 459.379 58.5445C459.415 58.801 459.489 59.0526 459.599 59.2931L459.379 59.9501L459.166 60.4186L458.87 61.3826L458.506 62.1958C458.338 62.2992 458.191 62.4267 458.073 62.5728C457.944 62.883 457.87 63.2079 457.853 63.5368V64.2584C457.69 64.5822 457.479 64.8863 457.225 65.1631L456.534 66.9726L456.132 68.5075C455.885 68.9409 455.675 69.3891 455.504 69.8484C455.347 70.3808 455.226 70.9201 455.139 71.464L454.737 73.182L454.191 74.8999L453.758 76.5155L453.242 78.3896L452.991 80.5115L452.514 82.1271L452.118 83.845C452.042 84.2466 451.931 84.6426 451.785 85.0298L451.276 85.9346L450.648 86.9039V88.0941C450.648 88.0941 450.786 88.4118 450.648 88.5896C450.51 88.7673 450.202 88.8211 450.064 88.9665C449.926 89.1119 450.064 89.7797 450.064 89.7797C450.064 89.7797 450.202 90.2483 450.064 90.2752C449.856 90.3019 449.657 90.3662 449.48 90.4637C449.342 90.5768 449.298 91.1207 449.298 91.1207L449.48 91.6592L449.078 92.1278L448.827 92.8171V94.3788L448.632 94.6589L445.981 94.2281V91.5138L447.966 91.1315L444.706 90.3506V88.8857L443.174 88.498L439.688 89.1335L404.688 80.743V81.6747L406.158 83.705L405.706 88.4172L407.948 90.5714L407.816 91.7239L404.431 91.5031V92.1062L407.433 93.808L402.754 95.9244H398.099V94.2065H400.511V88.6703H398.099V84.949H400.511V80.1022H398.099V77.5764H400.298V73.2035H399.224V72.7888H399.732V69.2506H377.503V72.7888H378.006V73.2035H376.938V77.5657H379.136V80.0914H376.724V84.9383H379.136V88.6596H376.724V94.2065H379.136V95.9352H372.987V62.1796L368.709 61.5226V61.1187L370.933 60.704V60.3917L364.137 59.6539L358.659 60.5748V60.8171L360.544 61.0756V61.4472L356.392 62.185V95.9137H352.296V70.9147H351.775V71.3133H351.31V64.0807H350.054V60.6179H349.866V59.7401H345.927V60.6286H345.67V64.0914H344.414V71.324H343.942V70.9255H343.427V94.2604L332.674 76.7686C332.636 76.704 332.636 76.7094 332.674 76.7309C332.467 76.4294 331.11 74.4098 331.034 73.3812H330.004V73.7421L325.94 73.6882V73.0689H321.487V73.6882L317.429 73.7421V73.3758H316.399C316.324 74.4045 314.967 76.424 314.76 76.7256C314.76 76.7256 314.76 76.6986 314.76 76.7633L304.239 93.8726V61.8619H293.592V62.6105H296.06V64.7269H303.07V95.6929L302.932 95.9083H302.593V65.1254H293.592V95.8975H292.078V65.1254H283.077V95.8975H282.6V64.7162H289.61V62.5997H292.078V61.8511H281.488V87.9541C261.251 85.7669 240.776 85.7307 220.528 87.8464L220.484 87.7656H220.239C220.239 87.7656 215.466 80.5276 214.379 79.5206L209.618 75.1315V65.0824L215.108 64.1615V63.9568L207.953 64.4038L201.32 63.9568V64.1992L206.502 65.1254H206.823V73.0527C206.823 73.0527 204.882 71.2002 203.525 70.7047C202.168 70.2092 199.084 69.0891 198.035 68.6367C196.986 68.1843 194.367 65.7609 193.72 65.2601C193.073 64.7592 190.108 62.4381 189.285 62.0989C188.607 61.8376 187.944 61.5464 187.301 61.2264C186.603 60.871 184.066 60.5048 183.098 60.2463C181.902 60.0577 180.676 60.0577 179.48 60.2463L179.097 60.3594C167.32 60.4132 154.343 58.4206 141.177 54.3008C141.222 54.2856 141.263 54.2624 141.296 54.2327C141.33 54.203 141.356 54.1674 141.372 54.1285C141.389 54.0914 141.398 54.0517 141.397 54.0118C141.396 53.9719 141.386 53.9325 141.367 53.8959C141.349 53.8593 141.322 53.8263 141.288 53.7987C141.254 53.7712 141.215 53.7496 141.171 53.7354C141.123 53.7168 141.07 53.7072 141.017 53.7072C140.964 53.7072 140.912 53.7168 140.863 53.7354L140.386 53.5792C140.378 53.5259 140.353 53.4755 140.315 53.4331C140.276 53.3907 140.225 53.358 140.167 53.3382C140.108 53.3184 140.045 53.3124 139.983 53.3206C139.921 53.3289 139.863 53.3513 139.814 53.3853L139.381 53.2399C139.369 53.1902 139.344 53.1436 139.307 53.1042C139.27 53.0648 139.222 53.0337 139.167 53.0137C139.111 52.995 139.051 52.9891 138.991 52.9966C138.932 53.0042 138.875 53.0249 138.828 53.0568L138.376 52.906C138.367 52.8528 138.342 52.8025 138.303 52.7601C138.265 52.7176 138.214 52.6844 138.156 52.6637C138.097 52.6431 138.032 52.6368 137.969 52.6453C137.906 52.6539 137.847 52.6769 137.798 52.7121L137.377 52.5721C137.362 52.5278 137.336 52.487 137.3 52.4525C137.264 52.4181 137.22 52.3909 137.17 52.3729C137.082 52.3445 136.985 52.3467 136.9 52.3789C136.814 52.4111 136.746 52.4708 136.711 52.5452C136.688 52.5872 136.676 52.6332 136.676 52.6798C136.676 52.7264 136.688 52.7724 136.711 52.8145C125.665 49.1321 115.253 44.1788 105.764 38.0908C105.764 38.0908 105.764 37.1699 105.186 36.8522C104.901 36.6826 104.562 36.5918 104.215 36.5918C103.868 36.5918 103.53 36.6826 103.245 36.8522C102.435 37.2238 102.472 37.5792 101.624 38.0585C100.776 38.5378 98.6973 38.8555 97.7488 39.2702C96.8003 39.6849 95.1672 41.1874 94.0303 42.286C92.8934 43.3846 89.4262 46.6859 88.2076 48.1723C86.989 49.6586 85.6323 53.1322 84.4891 55.4156C83.3459 57.699 81.5369 61.2534 80.6073 63.4183C79.6777 65.5832 77.8247 70.0584 76.8888 71.4156C75.9529 72.7727 75.4629 73.462 74.7594 74.5822C74.0559 75.7023 73.5786 77.3987 72.762 78.6858C71.9454 79.9729 69.9731 82.0248 69.4392 82.9941C68.9053 83.9635 68.1202 89.4566 67.3099 90.7491C66.4996 92.0416 64.8539 95.0574 63.1831 95.8814C61.5123 96.7053 57.0275 97.7716 55.1996 98.5041C53.3718 99.2365 50.9158 100.475 50.3128 100.475H0V116.604H603V100.502C603 100.502 594.206 100.534 593.314 100.502ZM228.537 95.2243V94.2711C228.642 93.9963 228.861 93.7644 229.154 93.6203C229.446 93.4763 229.79 93.4303 230.12 93.4912C230.45 93.5522 230.741 93.7158 230.939 93.9503C231.136 94.1849 231.225 94.4738 231.188 94.7612V95.9083H228.952L228.795 95.7144V95.4775L228.537 95.2243ZM232.727 94.745C232.707 94.4208 232.828 94.1017 233.067 93.8499C233.306 93.5981 233.646 93.4315 234.021 93.3825C234.396 93.4217 234.739 93.5824 234.981 93.8317C235.223 94.081 235.344 94.4 235.321 94.7235V95.9083H232.727V94.745ZM236.86 94.7073C236.832 94.367 236.96 94.0307 237.217 93.7701C237.474 93.5096 237.839 93.3454 238.235 93.3125C238.432 93.3248 238.624 93.3702 238.8 93.4462C238.977 93.5221 239.134 93.6271 239.263 93.7552C239.392 93.8832 239.49 94.0318 239.552 94.1924C239.614 94.353 239.638 94.5225 239.623 94.6912V95.9083H236.86V94.7073ZM240.986 94.6804C240.957 94.3372 241.084 93.9975 241.343 93.7339C241.601 93.4703 241.969 93.3036 242.368 93.2695C242.768 93.2983 243.139 93.4617 243.399 93.7241C243.659 93.9864 243.788 94.3264 243.756 94.6697V95.9083H240.993C240.993 95.499 240.993 95.0897 240.986 94.6804ZM245.119 94.6804C245.089 94.336 245.217 93.9951 245.475 93.7297C245.733 93.4644 246.101 93.2955 246.501 93.2587C246.903 93.2902 247.274 93.4568 247.533 93.7223C247.792 93.9877 247.918 94.3303 247.883 94.675C247.883 95.0951 247.883 95.5098 247.883 95.9244H245.119C245.126 95.4936 245.119 95.0789 245.119 94.6643V94.6804ZM249.253 95.9244V94.675C249.214 94.5006 249.22 94.3209 249.271 94.1488C249.323 93.9767 249.418 93.8164 249.55 93.6795C249.682 93.5426 249.848 93.4324 250.035 93.3567C250.223 93.281 250.427 93.2418 250.634 93.2418C250.842 93.2418 251.046 93.281 251.234 93.3567C251.421 93.4324 251.587 93.5426 251.719 93.6795C251.851 93.8164 251.946 93.9767 251.997 94.1488C252.049 94.3209 252.055 94.5006 252.016 94.675V95.9244H249.253ZM253.386 95.9244V94.675C253.347 94.5006 253.353 94.3209 253.405 94.1488C253.456 93.9767 253.551 93.8164 253.683 93.6795C253.815 93.5426 253.981 93.4324 254.168 93.3567C254.356 93.281 254.56 93.2418 254.768 93.2418C254.975 93.2418 255.179 93.281 255.367 93.3567C255.554 93.4324 255.72 93.5426 255.852 93.6795C255.984 93.8164 256.079 93.9767 256.131 94.1488C256.182 94.3209 256.188 94.5006 256.149 94.675V95.9191L253.386 95.9244ZM257.519 95.9244V94.6858C257.502 94.5157 257.525 94.3445 257.586 94.182C257.647 94.0195 257.745 93.8689 257.874 93.7388C258.003 93.6087 258.161 93.5018 258.338 93.424C258.515 93.3462 258.708 93.2992 258.907 93.2856C259.306 93.3224 259.672 93.4908 259.929 93.7551C260.186 94.0194 260.312 94.359 260.282 94.702V95.9244H257.519ZM261.652 95.9244V94.6912C261.636 94.5231 261.66 94.354 261.721 94.1937C261.783 94.0335 261.88 93.8852 262.009 93.7575C262.137 93.6298 262.294 93.5252 262.47 93.4498C262.646 93.3743 262.837 93.3295 263.034 93.3179C263.43 93.3508 263.796 93.5148 264.054 93.7752C264.312 94.0356 264.442 94.3718 264.415 94.7127V95.9083L261.652 95.9244ZM265.691 95.9244V94.745C265.676 94.5785 265.701 94.4111 265.763 94.2527C265.824 94.0944 265.923 93.9482 266.051 93.8228C266.18 93.6974 266.337 93.5953 266.512 93.5225C266.687 93.4496 266.878 93.4076 267.072 93.3987C267.464 93.4302 267.826 93.59 268.084 93.8449C268.341 94.0997 268.474 94.4299 268.454 94.7666C268.454 95.1543 268.454 95.5421 268.454 95.9298L265.691 95.9244ZM269.817 95.9244C269.817 95.5421 269.817 95.1597 269.817 94.7774C269.806 94.6134 269.832 94.4492 269.896 94.2942C269.959 94.1393 270.058 93.9969 270.187 93.8753C270.316 93.7538 270.472 93.6557 270.646 93.5868C270.82 93.5179 271.008 93.4796 271.199 93.4741C271.586 93.5003 271.947 93.654 272.204 93.9031C272.462 94.1521 272.597 94.477 272.581 94.8097C272.581 95.1813 272.581 95.5529 272.581 95.9244H269.817ZM273.95 95.9244V94.8474C273.942 94.6863 273.972 94.5255 274.037 94.3746C274.103 94.2236 274.204 94.0856 274.334 93.9689C274.463 93.8522 274.619 93.7592 274.792 93.6954C274.965 93.6317 275.151 93.5985 275.339 93.598C275.717 93.6187 276.072 93.7643 276.328 94.0042C276.585 94.2441 276.723 94.5598 276.714 94.8851V95.9622L273.95 95.9244ZM278.083 95.9244V94.8851C278.078 94.7278 278.111 94.5712 278.178 94.4249C278.245 94.2786 278.347 94.1455 278.476 94.0337C278.605 93.922 278.759 93.8338 278.93 93.7747C279.1 93.7155 279.282 93.6865 279.465 93.6895C279.837 93.706 280.186 93.8434 280.443 94.0736C280.7 94.3039 280.845 94.6095 280.847 94.9281V95.9244H278.083ZM384.733 93.668V91.7885H392.478V93.668H384.733ZM392.478 88.665V84.9437H394.174V88.665H392.478ZM396.918 95.9029V94.2065H397.547V95.9352L396.918 95.9029ZM445.479 94.745L448.406 95.1813V95.8867H448.337H443.657L445.479 94.745ZM435.184 95.4398L435.9 95.9137H434.851L435.184 95.4398ZM431.478 95.1651L432.181 95.9137H430.925L431.478 95.1651ZM411.717 94.9066L412.741 94.9497L413.645 95.9137H411.717V94.9066ZM410.693 94.8689H411.208V95.8921H410.693V94.8689ZM408.777 94.2873L409.927 94.8258H410.122V95.9029H405.323L408.777 94.2873ZM394.714 77.5549H397.565V80.0807H394.714V77.5549ZM394.714 84.949H397.565V88.6703H394.714V84.949ZM392.478 77.5549H394.174V80.0807H392.478V77.5549ZM388.621 80.6784H392.478V84.4482H384.733V80.6784H388.621ZM383.031 77.5549H384.733V80.0807H383.031V77.5549ZM383.031 84.949H384.733V88.6703H383.031V84.949ZM379.645 77.5549H382.528V80.0807H379.676L379.645 77.5549ZM379.645 84.949H382.528V88.6703H379.676L379.645 84.949ZM379.645 94.1796H380.273V95.9083H379.645V94.1796ZM281.488 89.0796V89.7905C281.017 89.7097 281.017 89.0796 281.488 89.0796ZM277.883 90.3398C277.873 90.1619 277.909 89.9845 277.987 89.8194C278.065 89.6544 278.183 89.5056 278.333 89.383C278.484 89.2605 278.664 89.1671 278.86 89.1092C279.056 89.0513 279.265 89.0302 279.472 89.0473C279.902 89.0939 280.298 89.2721 280.588 89.5491C280.878 89.826 281.041 90.1833 281.048 90.5552V93.0217L277.908 92.8979L277.883 90.3398ZM277.411 88.7242C277.952 88.7673 277.952 89.5212 277.411 89.4835C276.871 89.4458 276.865 88.7027 277.411 88.7457V88.7242ZM273.762 90.0651C273.748 89.8834 273.78 89.7012 273.854 89.5307C273.929 89.3601 274.045 89.2051 274.194 89.0758C274.344 88.9465 274.524 88.8459 274.722 88.7807C274.921 88.7154 275.133 88.687 275.345 88.6973C275.784 88.7471 276.188 88.9326 276.479 89.2192C276.771 89.5057 276.93 89.8735 276.928 90.2536C276.928 91.1153 276.928 91.9823 276.928 92.844L273.787 92.7363C273.756 91.8693 273.756 90.9753 273.762 90.0867V90.0651ZM273.278 88.4065C273.825 88.4442 273.819 89.2304 273.278 89.1981C272.738 89.1658 272.732 88.3903 273.278 88.428V88.4065ZM269.629 89.8605C269.614 89.6748 269.644 89.4885 269.718 89.3133C269.791 89.1381 269.906 88.9779 270.056 88.8428C270.205 88.7076 270.385 88.6005 270.586 88.5282C270.786 88.4559 271.001 88.4199 271.218 88.4226C271.669 88.4746 272.081 88.669 272.374 88.9678C272.667 89.2666 272.819 89.6483 272.801 90.0382C272.801 90.9322 272.801 91.8316 272.801 92.7309L269.629 92.6448C269.623 91.7185 269.629 90.8029 269.629 89.8982V89.8605ZM269.164 88.1426C269.711 88.1749 269.704 88.9881 269.164 88.9612C268.624 88.9342 268.618 88.1372 269.164 88.1641V88.1426ZM265.496 89.6936C265.479 89.504 265.507 89.3135 265.579 89.1338C265.651 88.954 265.766 88.7889 265.915 88.6485C266.065 88.5082 266.246 88.3957 266.449 88.3179C266.651 88.2402 266.87 88.1988 267.091 88.1964C267.542 88.2473 267.955 88.4416 268.247 88.7408C268.539 89.04 268.689 89.4223 268.668 89.812C268.668 90.7383 268.668 91.6646 268.668 92.5909L265.496 92.5209C265.496 91.6 265.496 90.6575 265.496 89.7151V89.6936ZM265.037 87.9325C265.584 87.9325 265.584 88.7888 265.037 88.7673C264.491 88.7457 264.497 87.9272 265.069 87.9541L265.037 87.9325ZM261.457 89.5482C261.437 89.3562 261.463 89.1628 261.533 88.9797C261.604 88.7966 261.716 88.6277 261.865 88.4831C262.014 88.3386 262.195 88.2214 262.398 88.1388C262.601 88.0562 262.822 88.0098 263.046 88.0025C263.498 88.0522 263.912 88.2459 264.206 88.5453C264.499 88.8446 264.65 89.2276 264.629 89.6182C264.629 90.566 264.629 91.5138 264.629 92.467L261.457 92.4078C261.457 91.5138 261.457 90.5498 261.457 89.5912V89.5482ZM260.98 87.7548C261.526 87.7548 261.526 88.6273 260.98 88.6111C260.433 88.5949 260.433 87.7817 260.98 87.7979V87.7548ZM257.324 89.4566C257.304 89.2627 257.33 89.0674 257.4 88.8821C257.469 88.6969 257.581 88.5254 257.73 88.3779C257.878 88.2304 258.059 88.1097 258.262 88.0231C258.465 87.9364 258.687 87.8855 258.913 87.8733C259.372 87.9232 259.792 88.1216 260.086 88.4279C260.38 88.7342 260.527 89.1253 260.496 89.5212C260.496 90.4906 260.496 91.4546 260.496 92.4186L257.355 92.3809C257.318 91.4492 257.324 90.4744 257.324 89.4997V89.4566ZM256.847 87.6794C257.387 87.6794 257.387 88.5573 256.847 88.5465C256.306 88.5357 256.275 87.7117 256.847 87.744V87.6794ZM253.185 89.4135C253.165 89.2179 253.19 89.0209 253.259 88.8337C253.329 88.6465 253.44 88.4729 253.588 88.3228C253.736 88.1727 253.916 88.0491 254.12 87.959C254.323 87.8689 254.546 87.8142 254.774 87.7979C255.236 87.8428 255.66 88.0396 255.956 88.3469C256.253 88.6543 256.398 89.0482 256.363 89.4458C256.363 90.4206 256.363 91.3953 256.363 92.3755H253.191L253.185 89.4135ZM252.688 87.5986C253.235 87.5986 253.235 88.4711 252.688 88.4657C252.142 88.4603 252.142 87.6363 252.688 87.6417V87.5986ZM250.634 87.771C251.092 87.8106 251.514 88.0014 251.811 88.3029C252.107 88.6044 252.255 88.9931 252.224 89.3866V92.3324H249.052V89.3866C249.033 89.0028 249.184 88.6272 249.476 88.3354C249.767 88.0436 250.177 87.8573 250.622 87.8141L250.634 87.771ZM248.568 87.5933C249.114 87.5933 249.114 88.4657 248.568 88.4657C248.021 88.4657 248.021 87.6417 248.568 87.6364V87.5933ZM246.501 87.7925C246.961 87.8281 247.385 88.018 247.681 88.3206C247.978 88.6233 248.123 89.0142 248.084 89.4081C248.084 90.3883 248.084 91.3684 248.084 92.3486H244.912C244.912 91.3738 244.912 90.399 244.912 89.4189C244.897 89.0321 245.051 88.6544 245.346 88.361C245.64 88.0676 246.053 87.88 246.501 87.8356V87.7925ZM244.435 87.631C244.981 87.631 244.981 88.4926 244.435 88.498C243.888 88.5034 243.888 87.6848 244.435 87.674V87.631ZM242.362 87.8679C242.589 87.8808 242.81 87.9324 243.014 88.0196C243.217 88.1068 243.398 88.228 243.546 88.3759C243.694 88.5239 243.806 88.6957 243.876 88.8812C243.945 89.0668 243.971 89.2624 243.951 89.4566C243.951 90.4314 243.951 91.4061 243.951 92.3809L240.773 92.4132C240.773 91.4492 240.773 90.4852 240.773 89.5158C240.754 89.126 240.907 88.7443 241.201 88.4469C241.496 88.1494 241.91 87.9581 242.362 87.911V87.8679ZM240.302 87.7279C240.848 87.7279 240.848 88.568 240.302 88.5842C239.755 88.6003 239.755 87.7871 240.302 87.771V87.7279ZM238.223 87.9918C238.447 87.9991 238.668 88.0454 238.871 88.128C239.074 88.2106 239.255 88.3278 239.404 88.4723C239.553 88.6169 239.665 88.7859 239.735 88.9689C239.806 89.152 239.832 89.3454 239.812 89.5374C239.812 90.5014 239.812 91.4654 239.812 92.4293L236.64 92.4778C236.64 91.53 236.64 90.5822 236.64 89.6343C236.626 89.2471 236.781 88.8694 237.073 88.5741C237.365 88.2787 237.775 88.0866 238.223 88.0349V87.9918ZM236.15 87.8948C236.69 87.8679 236.696 88.7134 236.15 88.735C235.603 88.7565 235.603 87.9595 236.175 87.9379L236.15 87.8948ZM234.008 88.1749C234.221 88.1885 234.429 88.2381 234.62 88.3207C234.811 88.4034 234.981 88.5175 235.121 88.6565C235.26 88.7956 235.366 88.9569 235.433 89.1311C235.5 89.3054 235.525 89.4892 235.509 89.672C235.509 90.6145 235.509 91.5569 235.509 92.5047L232.513 92.5694C232.513 91.6431 232.513 90.7168 232.513 89.7905C232.508 89.4198 232.655 89.0593 232.928 88.772C233.201 88.4846 233.583 88.2886 234.008 88.218V88.1749ZM231.583 88.218C231.654 88.1621 231.745 88.1296 231.841 88.1264C232.312 88.1264 232.375 88.7134 232.029 88.8965C231.97 88.9263 231.903 88.9447 231.835 88.9504C231.389 89.015 231.307 88.4765 231.583 88.2826V88.218ZM229.787 88.4011C230.004 88.3976 230.22 88.433 230.421 88.505C230.621 88.5771 230.802 88.6841 230.952 88.8195C231.101 88.9548 231.216 89.1153 231.289 89.2908C231.362 89.4664 231.392 89.6531 231.376 89.839C231.376 90.7599 231.376 91.6754 231.376 92.5963L228.235 92.6824C228.235 91.7885 228.235 90.8891 228.235 89.9898C228.234 89.6152 228.39 89.2527 228.675 88.9688C228.96 88.6848 229.355 88.4986 229.787 88.4442V88.4011ZM227.708 88.3741C228.254 88.3364 228.254 89.1335 227.708 89.1658C227.161 89.1981 227.168 88.4549 227.708 88.4172V88.3741ZM225.66 88.6757C225.873 88.6646 226.086 88.6925 226.285 88.7574C226.484 88.8223 226.665 88.9228 226.815 89.0521C226.965 89.1815 227.082 89.3368 227.157 89.5078C227.231 89.6787 227.263 89.8614 227.249 90.0436C227.249 90.8999 227.249 91.7562 227.249 92.6124L227.099 92.2139L226.973 91.907L226.295 91.7992L225.83 91.5246L225.428 91.0561L225.195 90.636L224.731 90.4583L224.146 89.9197C224.223 89.6102 224.41 89.3286 224.681 89.1136C224.952 88.8986 225.294 88.7607 225.66 88.7188V88.6757ZM223.562 88.6757C224.046 88.638 224.096 89.2412 223.719 89.3974L223.204 89.2681C223.183 89.2133 223.176 89.1553 223.183 89.098C223.191 89.0407 223.212 88.9854 223.245 88.9355C223.279 88.8857 223.325 88.8426 223.38 88.8089C223.434 88.7753 223.496 88.7519 223.562 88.7403V88.6757ZM207.432 65.1254H209.097V74.663L207.432 73.4782V65.1254ZM141.083 53.94C141.106 53.94 141.129 53.9479 141.145 53.9621C141.162 53.9762 141.171 53.9954 141.171 54.0154C141.171 54.0354 141.162 54.0546 141.145 54.0687C141.129 54.0828 141.106 54.0908 141.083 54.0908C141.06 54.0908 141.037 54.0828 141.021 54.0687C141.004 54.0546 140.995 54.0354 140.995 54.0154C140.995 53.9954 141.004 53.9762 141.021 53.9621C141.037 53.9479 141.06 53.94 141.083 53.94ZM140.254 53.94L140.694 54.0908C140.701 54.1245 140.713 54.1572 140.731 54.1877L140.216 54.0208L140.254 53.94ZM140.059 53.5576C140.079 53.5622 140.097 53.5723 140.11 53.5865C140.123 53.6006 140.129 53.6179 140.129 53.6357C140.129 53.6535 140.123 53.6709 140.11 53.685C140.097 53.6991 140.079 53.7092 140.059 53.7138C140.045 53.7131 140.032 53.71 140.019 53.7048C140.006 53.6995 139.995 53.6922 139.986 53.6832C139.967 53.665 139.957 53.6412 139.959 53.6169C139.96 53.5926 139.973 53.5699 139.995 53.5537C140.016 53.5376 140.044 53.5293 140.072 53.5307L140.059 53.5576ZM139.048 53.2345C139.071 53.2345 139.094 53.2425 139.11 53.2566C139.127 53.2707 139.136 53.2899 139.136 53.3099C139.136 53.3299 139.127 53.3491 139.11 53.3632C139.094 53.3774 139.071 53.3853 139.048 53.3853C138.916 53.353 138.935 53.1968 139.048 53.2076V53.2345ZM139.293 53.9992L138.696 54.0854L138.269 53.66L139.293 53.9992ZM138.52 59.2554V58.1244H139.871C139.871 58.5014 139.871 58.8784 139.871 59.2554H138.52ZM139.909 59.5623C139.909 59.8962 139.877 60.2355 139.846 60.5694H138.489C138.489 60.2355 138.489 59.907 138.489 59.5731L139.909 59.5623ZM137.107 57.3166L137.974 55.5395H138.998L139.802 57.3543C138.907 57.2736 138.006 57.252 137.107 57.2897V57.3166ZM136.85 59.2338C136.85 58.8569 136.85 58.4799 136.919 58.1029H138.332C138.332 58.4853 138.332 58.8569 138.332 59.2338H136.85ZM138.301 59.5462V60.5479H136.887C136.887 60.214 136.887 59.8747 136.887 59.5408L138.301 59.5462ZM138.257 55.0763L138.502 54.2847L138.74 54.3654L138.797 55.0763H138.257ZM138.037 52.9222C138.057 52.9267 138.075 52.9369 138.087 52.951C138.1 52.9651 138.107 52.9824 138.107 53.0003C138.107 53.0181 138.1 53.0354 138.087 53.0495C138.075 53.0636 138.057 53.0738 138.037 53.0783C138.006 53.0783 137.976 53.0678 137.955 53.0492C137.933 53.0305 137.921 53.0051 137.921 52.9787C137.921 52.9523 137.933 52.9269 137.955 52.9083C137.976 52.8896 138.006 52.8791 138.037 52.8791V52.9222ZM137.264 52.9545L137.672 53.0945L137.628 53.1807L137.264 53.0568L137.132 53.0137C137.186 52.9905 137.232 52.9551 137.264 52.9114V52.9545ZM137.038 52.6314C137.061 52.6314 137.084 52.6393 137.1 52.6534C137.117 52.6676 137.126 52.6868 137.126 52.7067C137.126 52.7267 137.117 52.7459 137.1 52.7601C137.084 52.7742 137.061 52.7821 137.038 52.7821C137.008 52.7821 136.979 52.7719 136.958 52.7538C136.937 52.7356 136.925 52.7109 136.925 52.6852C136.925 52.6595 136.937 52.6348 136.958 52.6167C136.979 52.5985 137.008 52.5883 137.038 52.5883V52.6314ZM137.17 53.3045L137.597 53.4499L138.363 54.1285L137.848 53.9562L137.804 54.0639L138.269 54.22L138.018 55.0871H137.666V55.5502L136.485 57.3651C136.19 57.3651 135.895 57.419 135.6 57.4567C135.29 57.5314 135.01 57.6765 134.789 57.8765C134.568 58.0766 134.414 58.3241 134.343 58.593C134.265 59.0555 134.265 59.5253 134.343 59.9878C134.401 60.2566 134.543 60.5071 134.753 60.7128C134.963 60.9185 135.234 61.0718 135.537 61.1564C137.403 61.4483 139.313 61.4756 141.19 61.2372C141.49 61.1691 141.758 61.0223 141.956 60.8171C142.188 60.6135 142.347 60.3576 142.415 60.0793C142.493 59.6168 142.493 59.147 142.415 58.6845C142.362 58.4192 142.225 58.1715 142.019 57.9683C141.817 57.7481 141.537 57.5895 141.221 57.5159C140.932 57.4674 140.643 57.4297 140.355 57.3974L139.23 55.5287V55.0655H138.96L138.929 54.4301L139.381 54.5809L139.431 54.4732L138.922 54.3008L140.009 54.2523C153.2 58.496 166.265 60.6125 178.149 60.6717C178.149 60.6717 176.579 61.4041 175.825 61.3664C174.621 61.2771 173.411 61.2771 172.207 61.3664C171.223 61.5217 170.323 61.9425 169.638 62.5674C168.922 63.1329 167.307 64.4253 166.604 64.8562C165.9 65.287 165.599 65.6209 164.719 65.6209C163.84 65.6209 163.363 65.6209 162.735 65.6209C162.106 65.6209 160.222 65.6209 159.236 65.6209C158.25 65.6209 156.391 66.6064 155.354 67.145C154.318 67.6835 152.502 68.6421 151.416 69.1052C150.096 69.6254 148.81 70.2079 147.565 70.8501C146.579 71.3886 144.425 72.6273 143.715 73.0043C143.005 73.3812 142.333 73.7474 141.611 74.2052C140.888 74.663 139.004 76.9948 138.47 77.6895C137.936 78.3843 136.052 80.7915 135.669 81.3139C135.286 81.8363 135.292 81.8524 134.896 81.8524C134.5 81.8524 134.205 80.8077 133.923 80.0483C133.64 79.289 129.431 75.5946 128.426 74.3129C127.421 73.0312 124.281 66.7357 124.03 66.1594C123.778 65.5832 124.118 64.393 124.03 62.9928C123.942 61.5926 122.221 59.7616 121.605 58.3129L119.991 54.5432C119.991 54.5432 117.478 49.8202 116.272 48.3554C115.321 47.3009 114.236 46.34 113.037 45.4903C112.177 44.7741 109.545 42.7976 108.672 41.866C107.948 40.9628 107.162 40.0977 106.316 39.2756C105.745 38.8825 105.977 38.5486 105.977 38.5486C115.548 44.6482 126.042 49.6033 137.17 53.2776V53.3045ZM136.636 59.2284H135.348C135.361 58.8475 135.406 58.4678 135.48 58.0921H136.737C136.667 58.4476 136.642 58.8299 136.636 59.2015V59.2284ZM136.667 60.5209H135.411C135.36 60.1815 135.331 59.8399 135.323 59.4977L136.611 59.53C136.63 59.8262 136.642 60.1601 136.667 60.4994V60.5209ZM135.135 59.2015H134.57C134.575 58.9852 134.596 58.7694 134.632 58.5553C134.669 58.3735 134.76 58.2029 134.896 58.0598H135.279C135.197 58.4367 135.149 58.8184 135.135 59.2015ZM135.229 60.4886H134.846C134.718 60.3418 134.636 60.1694 134.607 59.9878C134.607 59.8047 134.57 59.627 134.563 59.4492H135.135C135.138 59.7936 135.17 60.1373 135.229 60.4779V60.4886ZM140.122 59.5516H141.504C141.485 59.8946 141.441 60.2364 141.372 60.5748H140.053C140.072 60.2086 140.11 59.8747 140.122 59.5408V59.5516ZM140.122 58.1298H141.447C141.508 58.5064 141.537 58.8861 141.535 59.2661H140.154C140.135 58.8784 140.122 58.5014 140.072 58.1244L140.122 58.1298ZM141.736 59.5516H142.277C142.277 59.7293 142.245 59.907 142.214 60.0901C142.176 60.27 142.085 60.4387 141.95 60.5802H141.598C141.667 60.2367 141.705 59.8892 141.711 59.5408L141.736 59.5516ZM141.648 58.1514H141.956C142.086 58.2975 142.168 58.4702 142.195 58.6522C142.225 58.8666 142.24 59.0825 142.239 59.2985H141.705C141.713 58.9059 141.686 58.5134 141.623 58.1244L141.648 58.1514Z" fill="#00B1FF"/>
</svg>
